<?xml version="1.0" encoding="utf-8"?>
<!-- Generator: Adobe Illustrator 16.0.4, SVG Export Plug-In . SVG Version: 6.00 Build 0)  -->
<!DOCTYPE svg PUBLIC "-//W3C//DTD SVG 1.1//EN" "http://www.w3.org/Graphics/SVG/1.1/DTD/svg11.dtd">
<svg version="1.1"
	 id="svg4152" inkscape:version="0.47pre4 r22446" sodipodi:docname="Nuevo documento 9" xmlns:dc="http://purl.org/dc/elements/1.1/" xmlns:cc="http://creativecommons.org/ns#" xmlns:rdf="http://www.w3.org/1999/02/22-rdf-syntax-ns#" xmlns:svg="http://www.w3.org/2000/svg" xmlns:sodipodi="http://sodipodi.sourceforge.net/DTD/sodipodi-0.dtd" xmlns:inkscape="http://www.inkscape.org/namespaces/inkscape"
	 xmlns="http://www.w3.org/2000/svg" xmlns:xlink="http://www.w3.org/1999/xlink" x="0px" y="0px" width="744.945px"
	 height="1296.79px" viewBox="0 0 744.945 1296.79" enable-background="new 0 0 744.945 1296.79" xml:space="preserve">
<g id="layer1" transform="translate(64.693264,193.36371)" inkscape:groupmode="layer" inkscape:label="Capa 1">
	<g id="g6178" transform="translate(313.49391,162.65409)">
		<g id="g6167">
			<g id="g4207">
				<path id="path4002" fill="#A0892C" stroke="#000000" stroke-width="1.0326" d="M-0.154-341.628l-40.813,9.844
					c15.47,20.748,37.706,74.056-14.25,125.219c-74.269,73.136-94.277,143.239,2.844,216.375
					c5.713,9.143,28.58,27.408,45.719,15.219s17.125-48.75,17.125-48.75S-55.23-78.574-52.373-124.284
					c2.856-45.71,68.18-108.245,76.75-138.719c4.194-14.916-3.251-36.404-11.719-54.375c0.103-0.045,0.209-0.078,0.312-0.125
					c7.804-3.565,12.688-9.629,10.906-13.531c-1.783-3.902-9.572-4.19-17.375-0.625c-0.297,0.136-0.588,0.295-0.875,0.438
					C3.507-335.16,1.52-338.709-0.154-341.628z"/>
				<path id="path4006" fill="#A0892C" stroke="#000000" d="M-6.48-355.518c-3.766,0-6.844,6.125-6.844,13.656
					s3.078,13.625,6.844,13.625c3.766,0,6.812-6.094,6.812-13.625S-2.714-355.518-6.48-355.518z M-20.136-351.455
					c-3.766,0-6.812,6.094-6.812,13.625s3.047,13.625,6.812,13.625c3.766,0,6.812-6.094,6.812-13.625S-16.37-351.455-20.136-351.455
					z M-33.261-342.393c-3.766,0-6.812,6.125-6.812,13.656s3.047,13.625,6.812,13.625c3.766,0,6.812-6.094,6.812-13.625
					S-29.495-342.393-33.261-342.393z"/>
			</g>
			<g id="g4211">
				<path id="path4004" sodipodi:nodetypes="cscssscscscscc" fill="#A0892C" stroke="#000000" d="M227.227-291.706
					c-9.857,16.144-15.385,33.94-9.662,53.015c1.064,3.548,3.006,7.55,5.594,11.938c-0.417-0.161-0.848-0.325-1.281-0.469
					c-7.15-2.367-13.911-1.387-15.094,2.188c-1.184,3.575,3.662,8.383,10.812,10.75c5.632,1.865,11.017,1.671,13.625-0.25
					c21.881,30.764,60.898,72.99,63.094,105.906c2.856,42.857-62.844,94.281-62.844,94.281s-0.019,34.29,17.125,45.719
					c17.143,11.429,40.004-5.71,45.719-14.281c97.143-68.571,77.16-134.303,2.875-202.875
					c-44.087-40.695-41.24-69.246-31.946-89.907L227.227-291.706z"/>
				<path id="path4023" fill="#A0892C" stroke="#000000" d="M232.822-303.527c3.766,0,6.844,6.125,6.844,13.656
					c0,7.531-3.078,13.625-6.844,13.625c-3.767,0-6.812-6.094-6.812-13.625C226.009-297.403,229.055-303.527,232.822-303.527z
					 M246.478-299.465c3.766,0,6.812,6.093,6.812,13.625c0,7.531-3.047,13.625-6.812,13.625c-3.767,0-6.812-6.094-6.812-13.625
					C239.665-293.371,242.711-299.465,246.478-299.465z M259.603-290.402c3.766,0,6.812,6.125,6.812,13.656
					c0,7.531-3.047,13.625-6.812,13.625c-3.767,0-6.812-6.094-6.812-13.625C252.79-284.278,255.836-290.402,259.603-290.402z"/>
			</g>
			<path id="path4097" sodipodi:nodetypes="ccczcczcczccz" fill="#A0892C" d="M-327.717,454.309
				c-29.124,37.723-59.271,121.857-48.081,202.395c7.874,62.805,46.368,150.404,102.549,178.574
				c88.643,47.855,228.089,46.547,294.188,9.531c66.098-37.014,108.957-132.26,130.049-174.031
				c6.043-19.266-20.029-3.414-34.224-15.174c-34.589,50.029-31.863,93.395-95.031,148.045
				c-63.167,54.65-209.665,53.428-299.138-3.809c-96.159-84.996-112.863-245.949-35.525-349.658
				c25.528-27.846,98.107-25.121,117.151-9.68c19.044,15.441-46.542,42.402-68.282,49.119c32.342-2.354,97.153-32.6,75.047-50.299
				C-224.413,409.313-298.593,416.588-327.717,454.309L-327.717,454.309z"/>
			<path id="path3998" sodipodi:nodetypes="csczzszzcsscsc" fill="#A0892C" stroke="#000000" d="M-71.556,594.668
				c-97.143,68.57-77.143,134.285-2.857,202.855c74.286,68.572,5.714,120.002,5.714,120.002c-2.031,3.564-5.358,6.914,1.221,10.9
				s16.455-19.361,21.638-16.242c5.183,3.121-22.624,15.15-12.59,20.566c15.205,8.207,16.65-10.275,20.012-9.301
				c3.363,0.977-11.669,11.75-3.459,15.846s16.08-5.555,20.27-12.947c2.857-11.428,35.39-47.322,26.818-75.895
				c-8.571-28.57-73.909-87.215-76.767-130.072c-2.857-42.857,62.857-94.285,62.857-94.285s0-34.285-17.143-45.715
				C-42.985,568.953-65.842,586.096-71.556,594.668L-71.556,594.668z"/>
			<path id="path4000" sodipodi:nodetypes="csczzszzcsscsc" fill="#A0892C" stroke="#000000" d="M300.385,574.465
				c97.143,68.57,77.143,134.285,2.856,202.857c-74.285,68.57-5.714,120-5.714,120c2.031,3.564,5.358,6.914-1.221,10.9
				s-16.456-19.361-21.639-16.242c-5.182,3.121,22.625,15.15,12.591,20.566c-15.205,8.207-16.65-10.275-20.013-9.301
				c-3.362,0.977,11.67,11.75,3.46,15.846s-16.08-5.555-20.27-12.947c-2.857-11.428-35.391-47.322-26.818-75.895
				c8.571-28.57,73.909-87.215,76.767-130.072c2.856-42.857-62.857-94.285-62.857-94.285s0-34.285,17.143-45.715
				C271.813,548.75,294.67,565.893,300.385,574.465L300.385,574.465z"/>
		</g>
		<path id="path3985" fill="#A0892C" stroke="#000000" stroke-width="1.102" d="M106.94,191.667
			c-36.102-3.247-75.466,18.216-83.742,55.204C12.353,286.356,14.76,329.024-3.625,366.51
			c-15.63,38.012-42.735,69.354-65.274,103.166c-17.44,26.963-20.989,60.875-11.203,91.256
			c12.638,49.357,50.906,91.229,99.96,106.066c76.376,25.568,168.588,14.328,229.636-40.76
			c41.442-38.133,54.101-106.723,21.594-154.404c-17.518-26.215-35.516-53.123-41.144-84.787
			c-12.427-50.734-2.41-108.331-33.562-153.269C175.901,206.135,140.981,190.998,106.94,191.667z"/>
		<g id="g6036">
			
				<path id="path3977" sodipodi:ry="61.114227" sodipodi:rx="64.144684" sodipodi:cy="235.48268" sodipodi:cx="195.46452" sodipodi:type="arc" fill="#A0892C" stroke="#000000" d="
				M144.463,117.551c32.577,22.097,79.479,9.795,104.759-27.476S268.587,4.678,236.01-17.418
				c-32.576-22.096-79.479-9.794-104.759,27.477C105.972,47.329,111.887,95.455,144.463,117.551L144.463,117.551z"/>
			
				<path id="path3975" sodipodi:ry="61.114227" sodipodi:rx="64.144684" sodipodi:cy="235.48268" sodipodi:cx="195.46452" sodipodi:type="arc" fill="#A0892C" stroke="#000000" d="
				M81.456,119.571C48.88,141.668,1.978,129.366-23.302,92.095S-42.667,6.698-10.09-15.398s79.479-9.795,104.758,27.476
				C119.949,49.349,114.034,97.475,81.456,119.571L81.456,119.571z"/>
		</g>
		<g id="color-me">
			<path id="path3993" sodipodi:nodetypes="cscccccccccsc" fill="#FFCC00" stroke="#000000" stroke-width="0.7349" d="
				M110.298,250.093c-20.949-1.885-38.546-4.149-51.27,57.027c-0.642,3.086-6.004,25.156-6.721,28.359
				c-7.233,26.334-5.628,54.789-17.889,79.789c-10.424,25.35-28.5,46.254-43.532,68.803c-11.631,17.98-13.998,40.598-7.471,60.859
				c8.428,32.916,33.949,60.84,66.664,70.736c50.936,17.051,112.433,9.555,153.146-27.184
				c27.639-25.432,36.08-71.174,14.401-102.973c-11.683-17.482-23.686-35.43-27.439-56.547
				c-8.287-33.834-5.178-74.389-10.954-110.787c-6.521-45.469-9.237-28.52-13.11-39.79
				C146.006,219.842,129.632,249.712,110.298,250.093z"/>
			
				<path id="path3979" sodipodi:ry="61.114227" sodipodi:rx="64.144684" sodipodi:cy="235.48268" sodipodi:cx="195.46452" sodipodi:type="arc" fill="#FFCC00" stroke="#000000" d="
				M159.82,94.911c21.647,14.683,52.814,6.509,69.613-18.258c16.799-24.768,12.868-56.748-8.779-71.431
				C199.006-9.461,167.839-1.286,151.04,23.48S138.172,80.227,159.82,94.911L159.82,94.911z"/>
			
				<path id="path3981" sodipodi:ry="61.114227" sodipodi:rx="64.144684" sodipodi:cy="235.48268" sodipodi:cx="195.46452" sodipodi:type="arc" fill="#FFCC00" stroke="#000000" d="
				M65.09,94.911c-21.647,14.683-52.814,6.509-69.613-18.258C-21.322,51.885-17.391,19.905,4.256,5.222
				C25.904-9.461,57.071-1.286,73.869,23.48S86.738,80.227,65.09,94.911L65.09,94.911z"/>
		</g>
		<path id="path3962" fill="#A0892C" stroke="#000000" stroke-width="0.8894" d="M114.94-23.722
			C80.409-21.854,50.13,6.08,44.07,39.933c-3.499,16.24-5.937,32.69-8.955,49.014c-11.629,11.672-26.1,21.273-34.842,35.824
			c-16.329,23.945-12.487,55.465-3.427,81.419c12.26,35.722,48.994,57.048,85.048,61.272c23.019,2.686,46.143-1.374,69.085-3.156
			c19.122-3.349,35.776-14.375,51.719-24.836c21.269-17.388,27.781-46.646,29.349-72.836c1.53-28.319-9.562-57.437-31.961-75.441
			c-5.088-10.111,1.805-23.442-1.85-34.851c-4.244-34.459-27.093-68.893-62.066-77.749C129.256-23.217,122.076-23.919,114.94-23.722
			L114.94-23.722z"/>
		<g id="g6052">
			<path id="path3965" stroke="#000000" stroke-width="1.2603" d="M71.973,169.627c-8.923,0.387-17.623,5.04-22.609,12.499
				c-3.73,5.368-5.725,11.931-5.55,18.472c0.178,6.865,2.644,13.593,6.677,19.13c2.407,3.394,5.292,6.436,8.496,9.085
				c4.053,3.388,8.692,6.075,13.662,7.878c5.543,2.096,11.715,2.779,17.494,1.276c5.62-1.463,10.736-4.801,14.287-9.405
				c4.769-5.938,7.502-13.404,8.162-20.963c0.763-8.107-1.561-16.514-6.674-22.891c-5.097-6.39-12.348-10.813-20.083-13.27
				C81.349,170.085,76.66,169.43,71.973,169.627L71.973,169.627z"/>
			<path id="path4219" fill-opacity="0.2265" d="M75.291,170.714c-9.946,0.43-19.645,5.618-25.203,13.932
				c-4.158,5.984-6.382,13.3-6.187,20.592c0.198,7.652,2.946,15.152,7.442,21.324c2.685,3.782,5.899,7.174,9.471,10.127
				c4.519,3.776,9.689,6.772,15.229,8.782c6.179,2.336,13.059,3.098,19.502,1.422c6.265-1.63,11.967-5.352,15.925-10.484
				c5.316-6.619,8.364-14.941,9.1-23.367c0.85-9.037-1.739-18.408-7.439-25.517c-5.682-7.123-13.765-12.054-22.387-14.791
				C85.743,171.223,80.517,170.494,75.291,170.714L75.291,170.714z"/>
			<path id="path3967" sodipodi:nodetypes="cc" fill="none" stroke="#000000" stroke-width="5.041" d="M79.677,253.862
				c-15.434,3.81-30.837-7.969-42.058-22.434"/>
		</g>
		<g id="g6012">
			<g id="g4275">
				
					<path id="path3971" sodipodi:ry="29.7995" sodipodi:rx="27.779196" sodipodi:cy="377.91418" sodipodi:cx="242.94168" sodipodi:type="arc" fill="#FFFFFF" stroke="#615110" d="
					M114.528,55.117c0,16.486-9.974,29.852-22.275,29.852c-12.303,0-22.275-13.365-22.275-29.852s9.973-29.851,22.275-29.851
					C104.554,25.266,114.528,38.631,114.528,55.117z"/>
				<g id="g4267">
					
						<path id="path4223" sodipodi:ry="29.7995" sodipodi:rx="27.779196" sodipodi:cy="377.91418" sodipodi:cx="242.94168" sodipodi:type="arc" fill="#FFD42A" stroke="#C5A420" d="
						M108.886,62.781c0,10.989-6.647,19.898-14.849,19.898c-8.2,0-14.849-8.909-14.849-19.898c0-10.99,6.648-19.899,14.849-19.899
						C102.239,42.882,108.886,51.791,108.886,62.781z"/>
					<path id="path4241" fill-opacity="0.2265" d="M95.563,45.375c-0.477,0.078-0.898,0.427-1.031,1.094
						c-0.005,0.085,0,0.202-0.031,0.281c-0.109,0.271-0.165,0.273-0.188,0.25c-0.009-0.037-0.019-0.058-0.062,0.375
						c-0.022,0.22-0.023,0.436-0.031,0.656c-0.004,0.095,0.004,0.189,0,0.281c0.041-0.019,0.054,0.001,0,0.094
						c-0.021,0.037-0.034,0.07-0.031,0.125c0.003,0.07,0.04,0.152,0.062,0.219c0.025,0.076,0.115,0.143,0.094,0.219
						c-0.027,0.096-0.146,0.119-0.219,0.188c0.104,0.265,0.082,0.226,0.062,0.188c-0.003,0.015,0.002,0.065,0.031,0.188
						c0.021,0.088,0.074,0.162,0.094,0.25c0.048,0.225,0.033,0.441-0.031,0.656c-0.043,0.053-0.081,0.105-0.125,0.156
						C94.109,50.648,93.978,50.68,94,50.75c0.076,0.238,0.465,0.069,0.406,0.438c-0.108,0.672-0.18,0.541-0.219,0.375
						c0.004,0.049-0.008,0.027,0,0.125c0.235,0.251-0.134,0.277-0.125,0.5c0.012,0.326,0.467,0.133-0.156,0.531
						c-0.047,0.22,0.264,0.228,0.312,0.375c0.028,0.088-0.125,0.163-0.094,0.25c0.051,0.145,0.273,0.196,0.312,0.344
						c0.034,0.133-0.098,0.27-0.094,0.406c0.004,0.168,0.055,0.337,0.094,0.5c-0.036,0.156-0.041,0.317-0.094,0.469
						c-0.05,0.141-0.15,0.262-0.188,0.406c-0.021,0.084,0.001,0.164,0,0.25c-0.002,0.079-0.04,0.172-0.031,0.25
						c0.046,0.448,0.139-0.056,0.031,0.344c0.029,0.068,0.04,0.078,0.062,0.125c-0.077,0.012-0.143,0.018-0.219,0.031
						c-0.717,1.759,1.752,2.79,2.469,1.031c0.058-0.084,0.145-0.157,0.188-0.25c0.137-0.3,0.2-0.64,0.344-0.938
						c-0.003-0.267,0.047-0.111-0.219-0.344c-0.007-0.102,0.197-0.148,0.188-0.25c-0.012-0.117-0.203-0.142-0.25-0.25
						c-0.146-0.329,0.021-0.566,0.125-0.875c-0.089-0.163-0.266-0.314-0.281-0.5c-0.008-0.081,0.369-0.648,0.375-0.75
						c0.005-0.1-0.145-0.15-0.156-0.25c-0.017-0.129,0.196-0.236,0.156-0.375c-0.082-0.26-0.108-0.149,0.094-0.375
						c-0.012-0.087-0.198-0.07-0.219-0.156c-0.016-0.064,0.111-0.091,0.125-0.156c0.018-0.087-0.161-0.309-0.188-0.344
						c0.128-0.406,0.371-0.886,0.031-1.25c0.012-0.06,0.061-0.096,0.062-0.156c0.004-0.16-0.089-0.339-0.031-0.5
						c0.037-0.106,0.15-0.174,0.188-0.281c0.037-0.109-0.092-0.262-0.031-0.375c-0.057-0.048-0.156-0.059-0.188-0.125
						c-0.077-0.16,0.206-0.186,0.188-0.312c-0.016-0.103-0.191-0.146-0.188-0.25c0.004-0.128,0.115-0.206,0.188-0.312v-0.406
						c-0.049-0.054-0.106-0.103-0.156-0.156c0.052,0.158,0.116,0.305,0.094,0.469c-0.008,0.052-0.132,0.046-0.156,0
						c-0.122-0.229-0.105-0.376-0.031-0.531c0.018,0.022,0.073,0.01,0.094,0.031c-0.01-0.026-0.029-0.041-0.062-0.062
						c0.075-0.144,0.17-0.313,0.281-0.5C97.254,45.856,96.356,45.244,95.563,45.375z M94.219,48.406
						c0.014-0.026-0.002-0.063,0-0.094c-0.028,0.013-0.013,0.037-0.219,0.094C94.07,48.412,94.186,48.468,94.219,48.406z
						 M90.594,45.875c-0.429,0.07-0.817,0.399-0.938,1l-0.188,0.562c-0.269,1.608,2.013,1.983,2.281,0.375l0.156-0.5
						C92.107,46.311,91.308,45.758,90.594,45.875z M99.907,49.187c-0.309,0.035-0.619,0.222-0.875,0.562l-0.375,0.5
						c-0.868,1.446,1.163,2.665,2.031,1.219c0.09-0.096,0.191-0.185,0.281-0.281C101.736,50.165,100.832,49.083,99.907,49.187z
						 M86.344,49.844c-0.706,0.015-1.37,0.7-1,1.625c0.005,0.023,0.087,0.89,0.344,1c0.058,0.025,0.001-0.124,0-0.188
						c0.108,0.204,0.256,0.395,0.375,0.594c-0.04,0.117-0.061,0.217-0.062,0.281c-0.041-0.01-0.084-0.023-0.125-0.031
						c0.023,0.034,0.079,0.104,0.156,0.156c0.04,0.029,0.118,0.05,0.25,0.062c-0.01-0.039-0.019-0.087-0.031-0.125
						c-0.069-0.024-0.148-0.044-0.219-0.062c0.03-0.039,0.098-0.064,0.156-0.094c0.022,0.048,0.045,0.106,0.062,0.156
						c0.051,0.019,0.105,0.043,0.156,0.062c-0.008,0.229-0.09,0.45,0,0.656c0.04,0.093,0.213-0.039,0.312-0.031
						c0.032-0.115,0.14-0.267,0.156-0.188c0.035,0.171-0.038,0.375-0.062,0.562l0.594,0.344c-0.107,0.016-0.181,0.055-0.25,0.062
						c1.562,0.134,0.753,0.617,0.312,0.688c0.005,0.203-0.047,0.312,0.125,0.062c0.892,1.54,3.048,0.259,2.156-1.281
						c0.031,0.142,0.026,0.274-0.031,0.25C89.574,54.344,89.536,54.173,89.5,54c0.002,0.084-0.017,0.153-0.094,0.156
						c-0.191,0.008-0.045-0.348-0.062-0.562c-0.039-0.073-0.071-0.165-0.094-0.219c0.017,0.023,0.045,0.04,0.062,0.062
						c-0.14-0.472-0.26-0.733-0.438-1c0.011,0.044-0.044,0.066-0.094,0.062l-0.031,0.594c-0.024-0.062-0.048-0.517-0.031-0.844
						c-0.006-0.005,0.005-0.026,0-0.031c0.002-0.034,0.029-0.064,0.031-0.094c0.021,0.065,0.05,0.135,0.094,0.188
						c0.007,0.009,0.025-0.004,0.031,0c0.004-0.088-0.087-0.405-0.125-0.531c-0.021-0.067-0.01,0.106,0,0.219
						c-0.002,0.02,0.002,0.067,0,0.094c-0.058-0.188-0.069-0.407-0.188-0.562c-0.104-0.137-0.283-0.197-0.438-0.281
						c0.066,0.119,0.141,0.247,0.188,0.375c0.065,0.181-0.293-0.282-0.406-0.438c-0.022-0.03-0.048-0.059-0.062-0.094
						c0.042,0.018,0.083,0.044,0.125,0.062c0.042,0.039,0.104,0.066,0.156,0.094c-0.012-0.02-0.02-0.043-0.031-0.062
						c-0.038-0.064-0.084-0.124-0.125-0.188c-0.002,0.023-0.011,0.052-0.031,0.062c-0.028,0.015-0.065-0.003-0.094,0
						c-0.031-0.076-0.042-0.156-0.094-0.219c-0.08-0.097-0.213-0.144-0.312-0.219C87.215,50.07,86.767,49.836,86.344,49.844z
						 M88.782,52.5v-0.156c-0.014,0.052-0.074,0.125-0.031,0.156C88.757,52.506,88.771,52.499,88.782,52.5z M88.782,52.344
						c0.025,0.038,0.07,0.061,0.094,0.094c-0.016-0.059-0.049-0.112-0.094-0.156C88.792,52.298,88.771,52.329,88.782,52.344z
						 M89.313,53.437c0.012,0.041,0.018,0.048,0.031,0.094c0.004,0.017-0.002,0.043,0,0.062c0.03,0.058,0.077,0.12,0.094,0.156
						c0.031,0.072,0.044,0.164,0.062,0.25c-0.003-0.102-0.006-0.226-0.031-0.344c-0.007-0.013-0.024-0.019-0.031-0.031
						c-0.006-0.03,0.002-0.068,0-0.094c-0.002-0.023-0.073-0.053-0.062-0.031C89.36,53.476,89.33,53.46,89.313,53.437z
						 M87.469,55.375c-0.004-0.14-0.033-0.31-0.219-0.5c-0.11-0.112-0.056,0.322,0,0.469C87.267,55.388,87.363,55.392,87.469,55.375
						z M86.813,54.281c-0.017-0.13,0.036-0.289-0.062-0.375c-0.012-0.01-0.018,0.001-0.031,0c-0.01,0.032-0.037,0.072-0.031,0.094
						C86.721,54.135,86.785,54.193,86.813,54.281z M86.282,53.344c-0.05,0.007-0.082,0.002-0.125,0
						c0.075,0.04,0.136,0.082,0.125,0.031C86.28,53.366,86.284,53.353,86.282,53.344z M86.813,54.344
						c-0.019,0.186,0,0.356,0.156,0.5c0.049,0.045-0.043-0.124-0.062-0.188c0.078,0.004,0.117,0.026,0.188,0.031
						C86.955,54.691,86.895,54.593,86.813,54.344z M103.469,54.969c-1.062,0.067-1.67,1.592-0.469,2.312
						c0.4,0.223,0.491,0.204,0.656,0.531c-0.024,0.009-0.033-0.004-0.062,0c-0.064,0.01-0.123,0.002-0.188,0
						c-0.061,0.069-0.079,0.107-0.094,0.125c0.034,0.012,0.104,0.054,0.188,0.25c0.029,0.071,0.006,0.143,0,0.219
						c0,1.783,2.531,1.783,2.531,0c0.321-0.276-0.015-0.101,0.25-0.344c-0.003-0.084-0.016-0.167-0.031-0.25
						c-0.019-0.096-0.034-0.188-0.062-0.281c-0.082-0.272-0.116-0.562-0.25-0.812c-0.111-0.207-0.321-0.349-0.469-0.531
						c-0.146-0.181-0.229-0.412-0.406-0.562c-0.229-0.191-0.521-0.293-0.781-0.438C104.004,55.021,103.713,54.953,103.469,54.969
						L103.469,54.969z M82.594,55.875c-0.405,0.07-0.787,0.372-1,0.906c-0.049,0.844-0.011,0.782-0.188,1.625
						c-0.05,0.234-0.174,0.449-0.188,0.688c-0.011,0.181,0.135,0.351,0.125,0.531c-0.035,0.62-0.314,0.171-0.031,0.531
						c0.044,0.067,0.121,0.139,0.125,0.219c0.015,0.311-0.222,0.084-0.156,0.375c0.007,0.031,0.451,1.389,0.5,1.438
						c0.212,0.211,0.539,0.252,0.812,0.375l0.344,0.125c1.727,0.65,2.68-1.636,1.188-2.438c0.014-0.105,0.001-0.215-0.062-0.312
						c-0.044-0.121-0.077-0.224-0.125-0.344c-0.033-0.08-0.092-0.163-0.094-0.25c-0.003-0.085,0.128-0.171,0.094-0.25
						c-0.074-0.17-0.308-0.233-0.375-0.406c-0.215-0.551,0.096-0.657,0.438-0.969C84.47,56.544,83.484,55.719,82.594,55.875z
						 M103.938,67.719c-0.467-0.009-0.943,0.265-1.188,0.875c-0.042,0.163-0.084,0.306-0.125,0.469
						c-0.816,1.632,1.496,2.788,2.312,1.156c0.04-0.24,0.085-0.479,0.125-0.719C105.47,68.482,104.714,67.734,103.938,67.719z
						 M84.188,68.625c-0.111-0.005-0.233,0.003-0.344,0.031c-0.295,0.077-0.581,0.29-0.781,0.656
						c-0.063-0.024-0.143-0.012-0.188-0.062c-0.024-0.026,0.054-0.121,0.031-0.094c-0.521,0.643,0.109,0.139-0.812,0.688
						c-1.37,1.027,0.099,2.965,1.469,1.938c0.175,0.032,0.38,0.188,0.531,0.094c0.162-0.101,0.076-0.376,0.188-0.531
						c0.139-0.194,0.363-0.329,0.531-0.5c0.122-0.124,0.203-0.271,0.312-0.406C85.65,69.474,84.962,68.659,84.188,68.625z
						 M101.032,76.562c-0.239,0.044-0.492,0.18-0.719,0.406c-0.024,0.043-0.138,0.199-0.219,0.344
						c-0.019-0.011-0.044-0.021-0.062-0.031c-0.198-0.034-0.277,0.138-0.438,0.188c-0.854,0.264-0.586-0.046-0.875,0.375
						c-1.533,0.743-0.496,2.895,1.031,2.188c0.01-0.002,0.021,0.002,0.031,0c0.061,0.009,0.104,0.047,0.156,0.031
						c0.021-0.006,0.018-0.043,0.031-0.062c0.016-0.008,0.017-0.02,0.031-0.031c0.441-0.062,0.889-0.082,1.312-0.219
						c0.118-0.038,0.572-1.058,0.719-1.094C103.012,77.676,102.067,76.372,101.032,76.562z M99.938,77.625
						c-0.12,0.19-0.236,0.343-0.312,0.375c-0.103,0.043-0.352-0.142-0.25-0.188C99.559,77.729,99.741,77.671,99.938,77.625z"/>
				</g>
				<g id="g4271">
					
						<path id="path4221" sodipodi:ry="29.7995" sodipodi:rx="27.779196" sodipodi:cy="377.91418" sodipodi:cx="242.94168" sodipodi:type="arc" stroke="#000000" d="
						M102.797,66.847c0,6.592-3.988,11.937-8.907,11.937s-8.907-5.345-8.907-11.937c0-6.593,3.988-11.937,8.907-11.937
						S102.797,60.255,102.797,66.847z"/>
					
						<path id="path4225" sodipodi:ry="29.7995" sodipodi:rx="27.779196" sodipodi:cy="377.91418" sodipodi:cx="242.94168" sodipodi:type="arc" fill="#FFFFFF" stroke="#000000" d="
						M94.95,61.133c0,2.106-1.273,3.813-2.846,3.813c-1.571,0-2.846-1.707-2.846-3.813c0-2.105,1.274-3.813,2.846-3.813
						C93.676,57.319,94.95,59.027,94.95,61.133z"/>
				</g>
			</g>
			<g id="g4284" transform="matrix(-1,0,0,1,240.06243,0)">
				
					<path id="path4286" sodipodi:ry="29.7995" sodipodi:rx="27.779196" sodipodi:cy="377.91418" sodipodi:cx="242.94168" sodipodi:type="arc" fill="#FFFFFF" stroke="#615110" d="
					M114.527,55.117c0,16.486-9.973,29.852-22.275,29.852c-12.302,0-22.274-13.365-22.274-29.852s9.973-29.851,22.274-29.851
					C104.554,25.266,114.527,38.631,114.527,55.117z"/>
				<g id="g4288">
					
						<path id="path4290" sodipodi:ry="29.7995" sodipodi:rx="27.779196" sodipodi:cy="377.91418" sodipodi:cx="242.94168" sodipodi:type="arc" fill="#FFD42A" stroke="#C5A420" d="
						M108.886,62.781c0,10.989-6.648,19.898-14.849,19.898S79.189,73.77,79.189,62.781c0-10.99,6.648-19.899,14.849-19.899
						S108.886,51.791,108.886,62.781z"/>
					<path id="path4292" fill-opacity="0.2265" d="M95.562,45.375c-0.476,0.078-0.897,0.427-1.031,1.094
						c-0.005,0.085,0.001,0.202-0.031,0.281c-0.108,0.271-0.164,0.273-0.188,0.25c-0.009-0.037-0.019-0.058-0.062,0.375
						c-0.021,0.22-0.022,0.436-0.031,0.656c-0.003,0.095,0.004,0.189,0,0.281c0.042-0.019,0.055,0.001,0,0.094
						c-0.021,0.037-0.034,0.07-0.031,0.125c0.004,0.07,0.041,0.152,0.062,0.219c0.025,0.076,0.115,0.143,0.094,0.219
						c-0.026,0.096-0.146,0.119-0.219,0.188c0.105,0.265,0.082,0.226,0.062,0.188c-0.003,0.015,0.003,0.065,0.031,0.188
						c0.021,0.088,0.075,0.162,0.094,0.25c0.048,0.225,0.034,0.441-0.031,0.656c-0.042,0.053-0.08,0.105-0.125,0.156
						C94.109,50.648,93.978,50.68,94,50.75c0.077,0.238,0.466,0.069,0.406,0.438c-0.107,0.672-0.179,0.541-0.219,0.375
						c0.005,0.049-0.008,0.027,0,0.125c0.236,0.251-0.133,0.277-0.125,0.5c0.013,0.326,0.468,0.133-0.156,0.531
						c-0.046,0.22,0.265,0.228,0.312,0.375c0.029,0.088-0.124,0.163-0.094,0.25c0.052,0.145,0.274,0.196,0.312,0.344
						c0.035,0.133-0.097,0.27-0.094,0.406c0.005,0.168,0.056,0.337,0.094,0.5c-0.036,0.156-0.04,0.317-0.094,0.469
						c-0.049,0.141-0.149,0.262-0.188,0.406c-0.021,0.084,0.002,0.164,0,0.25c-0.001,0.079-0.039,0.172-0.031,0.25
						c0.047,0.448,0.14-0.056,0.031,0.344c0.029,0.068,0.041,0.078,0.062,0.125c-0.076,0.012-0.142,0.018-0.219,0.031
						c-0.717,1.759,1.752,2.79,2.469,1.031c0.058-0.084,0.146-0.157,0.188-0.25c0.137-0.3,0.201-0.64,0.344-0.938
						c-0.002-0.267,0.048-0.111-0.219-0.344c-0.006-0.102,0.197-0.148,0.188-0.25c-0.011-0.117-0.202-0.142-0.25-0.25
						c-0.145-0.329,0.021-0.566,0.125-0.875c-0.089-0.163-0.265-0.314-0.281-0.5c-0.007-0.081,0.37-0.648,0.375-0.75
						c0.006-0.1-0.144-0.15-0.156-0.25c-0.016-0.129,0.197-0.236,0.156-0.375c-0.081-0.26-0.107-0.149,0.094-0.375
						c-0.011-0.087-0.197-0.07-0.219-0.156c-0.016-0.064,0.111-0.091,0.125-0.156c0.019-0.087-0.16-0.309-0.188-0.344
						c0.129-0.406,0.371-0.886,0.031-1.25c0.012-0.06,0.062-0.096,0.062-0.156c0.004-0.16-0.088-0.339-0.031-0.5
						C96.85,49.675,96.963,49.607,97,49.5c0.038-0.109-0.092-0.262-0.031-0.375c-0.056-0.048-0.155-0.059-0.188-0.125
						c-0.076-0.16,0.206-0.186,0.188-0.312c-0.015-0.103-0.19-0.146-0.188-0.25c0.005-0.128,0.116-0.206,0.188-0.312v-0.406
						c-0.049-0.054-0.105-0.103-0.156-0.156c0.053,0.158,0.116,0.305,0.094,0.469c-0.007,0.052-0.132,0.046-0.156,0
						c-0.122-0.229-0.104-0.376-0.031-0.531c0.019,0.022,0.074,0.01,0.094,0.031c-0.009-0.026-0.028-0.041-0.062-0.062
						c0.076-0.144,0.17-0.313,0.281-0.5C97.253,45.856,96.356,45.244,95.562,45.375z M94.218,48.406
						c0.015-0.026-0.001-0.063,0-0.094c-0.027,0.013-0.012,0.037-0.219,0.094C94.07,48.412,94.186,48.468,94.218,48.406z
						 M90.593,45.875c-0.428,0.07-0.816,0.399-0.938,1l-0.188,0.562c-0.268,1.608,2.014,1.983,2.281,0.375l0.156-0.5
						C92.107,46.311,91.308,45.758,90.593,45.875z M99.906,49.187c-0.309,0.035-0.619,0.222-0.875,0.562l-0.375,0.5
						c-0.867,1.446,1.164,2.665,2.031,1.219c0.09-0.096,0.192-0.185,0.281-0.281C101.736,50.165,100.833,49.083,99.906,49.187z
						 M86.343,49.844c-0.705,0.015-1.369,0.7-1,1.625c0.006,0.023,0.087,0.89,0.344,1c0.059,0.025,0.002-0.124,0-0.188
						c0.109,0.204,0.256,0.395,0.375,0.594c-0.039,0.117-0.06,0.217-0.062,0.281c-0.04-0.01-0.084-0.023-0.125-0.031
						c0.023,0.034,0.08,0.104,0.156,0.156c0.041,0.029,0.119,0.05,0.25,0.062c-0.01-0.039-0.018-0.087-0.031-0.125
						c-0.069-0.024-0.147-0.044-0.219-0.062c0.031-0.039,0.099-0.064,0.156-0.094c0.022,0.048,0.046,0.106,0.062,0.156
						c0.052,0.019,0.106,0.043,0.156,0.062c-0.007,0.229-0.09,0.45,0,0.656c0.041,0.093,0.214-0.039,0.312-0.031
						c0.033-0.115,0.141-0.267,0.156-0.188c0.036,0.171-0.037,0.375-0.062,0.562l0.594,0.344c-0.106,0.016-0.18,0.055-0.25,0.062
						c1.562,0.134,0.754,0.617,0.312,0.688c0.006,0.203-0.046,0.312,0.125,0.062c0.893,1.54,3.049,0.259,2.156-1.281
						c0.031,0.142,0.026,0.274-0.031,0.25C89.574,54.344,89.536,54.173,89.5,54c0.003,0.084-0.016,0.153-0.094,0.156
						c-0.19,0.008-0.044-0.348-0.062-0.562c-0.038-0.073-0.07-0.165-0.094-0.219c0.018,0.023,0.045,0.04,0.062,0.062
						c-0.139-0.472-0.259-0.733-0.438-1c0.012,0.044-0.043,0.066-0.094,0.062l-0.031,0.594c-0.023-0.062-0.047-0.517-0.031-0.844
						c-0.005-0.005,0.006-0.026,0-0.031c0.002-0.034,0.029-0.064,0.031-0.094c0.022,0.065,0.051,0.135,0.094,0.188
						c0.008,0.009,0.026-0.004,0.031,0c0.005-0.088-0.087-0.405-0.125-0.531c-0.02-0.067-0.009,0.106,0,0.219
						c-0.001,0.02,0.002,0.067,0,0.094c-0.058-0.188-0.069-0.407-0.188-0.562c-0.104-0.137-0.282-0.197-0.438-0.281
						c0.067,0.119,0.142,0.247,0.188,0.375c0.066,0.181-0.293-0.282-0.406-0.438c-0.021-0.03-0.047-0.059-0.062-0.094
						c0.043,0.018,0.084,0.044,0.125,0.062c0.043,0.039,0.105,0.066,0.156,0.094c-0.011-0.02-0.02-0.043-0.031-0.062
						c-0.038-0.064-0.084-0.124-0.125-0.188c-0.001,0.023-0.01,0.052-0.031,0.062c-0.027,0.015-0.064-0.003-0.094,0
						c-0.03-0.076-0.041-0.156-0.094-0.219c-0.08-0.097-0.212-0.144-0.312-0.219C87.215,50.07,86.767,49.836,86.343,49.844z
						 M88.781,52.5v-0.156c-0.014,0.052-0.073,0.125-0.031,0.156C88.757,52.506,88.771,52.499,88.781,52.5z M88.781,52.344
						c0.026,0.038,0.071,0.061,0.094,0.094c-0.015-0.059-0.049-0.112-0.094-0.156C88.793,52.298,88.771,52.329,88.781,52.344z
						 M89.312,53.437c0.013,0.041,0.019,0.048,0.031,0.094c0.005,0.017-0.001,0.043,0,0.062c0.031,0.058,0.078,0.12,0.094,0.156
						c0.032,0.072,0.045,0.164,0.062,0.25c-0.002-0.102-0.006-0.226-0.031-0.344c-0.006-0.013-0.023-0.019-0.031-0.031
						c-0.006-0.03,0.002-0.068,0-0.094c-0.001-0.023-0.072-0.053-0.062-0.031C89.359,53.476,89.33,53.46,89.312,53.437z
						 M87.468,55.375c-0.003-0.14-0.032-0.31-0.219-0.5c-0.109-0.112-0.055,0.322,0,0.469
						C87.267,55.388,87.363,55.392,87.468,55.375z M86.812,54.281c-0.017-0.13,0.037-0.289-0.062-0.375
						c-0.011-0.01-0.017,0.001-0.031,0c-0.009,0.032-0.036,0.072-0.031,0.094C86.721,54.135,86.786,54.193,86.812,54.281z
						 M86.281,53.344c-0.049,0.007-0.082,0.002-0.125,0c0.076,0.04,0.137,0.082,0.125,0.031
						C86.279,53.366,86.284,53.353,86.281,53.344z M86.812,54.344c-0.018,0.186,0,0.356,0.156,0.5
						c0.05,0.045-0.043-0.124-0.062-0.188c0.079,0.004,0.118,0.026,0.188,0.031C86.956,54.691,86.894,54.593,86.812,54.344z
						 M103.468,54.969c-1.061,0.067-1.669,1.592-0.469,2.312c0.401,0.223,0.491,0.204,0.656,0.531c-0.023,0.009-0.033-0.004-0.062,0
						c-0.063,0.01-0.122,0.002-0.188,0c-0.06,0.069-0.078,0.107-0.094,0.125c0.034,0.012,0.105,0.054,0.188,0.25
						c0.03,0.071,0.007,0.143,0,0.219c0,1.783,2.531,1.783,2.531,0c0.322-0.276-0.014-0.101,0.25-0.344
						c-0.003-0.084-0.015-0.167-0.03-0.25c-0.019-0.096-0.035-0.188-0.062-0.281c-0.083-0.272-0.116-0.562-0.25-0.812
						c-0.111-0.207-0.321-0.349-0.469-0.531c-0.147-0.181-0.229-0.412-0.406-0.562c-0.229-0.191-0.521-0.293-0.781-0.438
						C104.004,55.021,103.713,54.953,103.468,54.969L103.468,54.969z M82.593,55.875c-0.404,0.07-0.786,0.372-1,0.906
						c-0.048,0.844-0.01,0.782-0.188,1.625c-0.049,0.234-0.174,0.449-0.188,0.688c-0.01,0.181,0.136,0.351,0.125,0.531
						c-0.034,0.62-0.314,0.171-0.031,0.531c0.045,0.067,0.122,0.139,0.125,0.219c0.016,0.311-0.221,0.084-0.156,0.375
						c0.008,0.031,0.451,1.389,0.5,1.438c0.213,0.211,0.54,0.252,0.812,0.375l0.344,0.125c1.728,0.65,2.681-1.636,1.188-2.438
						c0.014-0.105,0.001-0.215-0.062-0.312c-0.043-0.121-0.076-0.224-0.125-0.344c-0.032-0.08-0.091-0.163-0.094-0.25
						c-0.002-0.085,0.128-0.171,0.094-0.25c-0.073-0.17-0.308-0.233-0.375-0.406c-0.215-0.551,0.097-0.657,0.438-0.969
						C84.47,56.544,83.484,55.719,82.593,55.875z M103.937,67.719c-0.466-0.009-0.942,0.265-1.188,0.875
						c-0.041,0.163-0.083,0.306-0.125,0.469c-0.815,1.632,1.497,2.788,2.312,1.156c0.041-0.24,0.085-0.479,0.125-0.719
						C105.47,68.482,104.714,67.734,103.937,67.719z M84.187,68.625c-0.11-0.005-0.232,0.003-0.344,0.031
						c-0.294,0.077-0.581,0.29-0.781,0.656C83,69.288,82.92,69.301,82.875,69.25c-0.023-0.026,0.054-0.121,0.031-0.094
						c-0.521,0.643,0.11,0.139-0.812,0.688c-1.369,1.027,0.1,2.965,1.469,1.938c0.175,0.032,0.381,0.188,0.531,0.094
						c0.163-0.101,0.076-0.376,0.188-0.531c0.14-0.194,0.364-0.329,0.531-0.5c0.122-0.124,0.203-0.271,0.312-0.406
						C85.65,69.474,84.962,68.659,84.187,68.625z M101.031,76.562c-0.238,0.044-0.492,0.18-0.719,0.406
						c-0.023,0.043-0.137,0.199-0.219,0.344c-0.019-0.011-0.043-0.021-0.062-0.031c-0.197-0.034-0.276,0.138-0.438,0.188
						c-0.853,0.264-0.585-0.046-0.875,0.375c-1.532,0.743-0.495,2.895,1.031,2.188c0.011-0.002,0.021,0.002,0.031,0
						c0.062,0.009,0.105,0.047,0.156,0.031c0.022-0.006,0.019-0.043,0.031-0.062c0.016-0.008,0.018-0.02,0.031-0.031
						c0.442-0.062,0.89-0.082,1.312-0.219c0.118-0.038,0.573-1.058,0.719-1.094C103.012,77.676,102.067,76.372,101.031,76.562z
						 M99.937,77.625c-0.119,0.19-0.235,0.343-0.312,0.375c-0.102,0.043-0.351-0.142-0.25-0.188
						C99.559,77.729,99.741,77.671,99.937,77.625z"/>
				</g>
				<g id="g4294">
					
						<path id="path4296" sodipodi:ry="29.7995" sodipodi:rx="27.779196" sodipodi:cy="377.91418" sodipodi:cx="242.94168" sodipodi:type="arc" stroke="#000000" d="
						M102.796,66.847c0,6.592-3.987,11.937-8.906,11.937c-4.92,0-8.907-5.345-8.907-11.937c0-6.593,3.987-11.937,8.907-11.937
						C98.809,54.911,102.796,60.255,102.796,66.847z"/>
					
						<path id="path4298" sodipodi:ry="29.7995" sodipodi:rx="27.779196" sodipodi:cy="377.91418" sodipodi:cx="242.94168" sodipodi:type="arc" fill="#FFFFFF" stroke="#000000" d="
						M94.95,61.133c0,2.106-1.274,3.813-2.846,3.813s-2.846-1.707-2.846-3.813c0-2.105,1.274-3.813,2.846-3.813
						S94.95,59.027,94.95,61.133z"/>
				</g>
			</g>
			<path id="path5956" fill="#463C13" stroke="#473C13" stroke-linecap="round" stroke-linejoin="round" d="M56.913,42.036
				l9.412,3.378c2.475-8.756,5.409-17.304,10.978-24.018c2.07-2.462,4.399-4.672,7.211-5.763l0,0
				c2.512-1.048,5.596-1.041,8.384-0.031c4.318,1.607,8.695,3.211,13.176,4.339l0,0c0.786,0.198,1.582,0.386,2.387,0.497l0,0
				c0.161,0.022,0.324,0.042,0.487,0.051c0.037,0.002,0.073,0.004,0.11,0.003c0.013-0.001,0.025-0.001,0.038-0.001l0,0l0,0
				c-0.013,0-0.025-0.002-0.038-0.005c-0.036-0.005-0.072-0.013-0.107-0.02c-0.159-0.033-0.314-0.077-0.47-0.123l0,0
				c-0.771-0.231-1.516-0.533-2.259-0.847l0,0c-4.226-1.785-8.225-3.999-12.242-6.238c-3.126-1.721-6.929-2.373-10.65-1.531l0,0
				c-3.891,0.941-7.323,3.139-10.12,5.713C65.778,24.18,60.76,33.183,56.913,42.036z"/>
			<path id="path5960" fill="#463C13" stroke="#473C13" stroke-linecap="round" stroke-linejoin="round" d="M172.415,43.899
				l9.412-3.379c-3.847-8.853-8.864-17.855-16.296-24.596c-2.797-2.574-6.23-4.771-10.12-5.712c-3.722-0.842-7.524-0.189-10.65,1.53
				l0,0c-4.004,2.236-8,4.449-12.234,6.236c-0.949,0.33-1.909,0.662-2.882,0.997h-0.001h0.001c0.993-0.181,1.998-0.363,3.016-0.549
				c4.471-1.125,8.851-2.729,13.183-4.34l0,0c2.788-1.01,5.872-1.017,8.384,0.031c2.812,1.09,5.141,3.301,7.211,5.762
				C167.006,26.594,169.941,35.142,172.415,43.899L172.415,43.899z"/>
		</g>
		<g id="g6048">
			<path id="path3969" d="M114.366,97.873c-5.646,0.173-11.239,3.001-14.435,7.714c-3.284,4.726-4.543,10.593-4.556,16.277
				c0.067,5.752,1.637,11.606,5.074,16.276c3.41,4.466,9.004,7.14,14.621,7.014c6.916,0.041,13.785-2.424,19.198-6.705
				c3.682-2.938,6.329-7.29,6.745-12.027c0.412-4.339-0.938-8.675-2.973-12.467c-2.346-4.323-5.643-8.118-9.488-11.176
				C124.493,99.748,119.508,97.634,114.366,97.873L114.366,97.873z"/>
			<path id="path5966" fill="#FFFFFF" fill-opacity="0.3034" d="M130.313,104.281c1.812,2.034,3.389,4.263,4.688,6.656
				c2.034,3.792,3.38,8.131,2.969,12.469c-0.417,4.738-3.037,9.062-6.719,12c-5.414,4.281-12.303,6.76-19.219,6.719
				c-4.133,0.093-8.253-1.338-11.5-3.875c3.418,4.395,8.965,7.031,14.531,6.906c6.916,0.041,13.805-2.438,19.219-6.719
				c3.682-2.938,6.302-7.293,6.719-12.031c0.411-4.338-0.935-8.646-2.969-12.438C136.053,110.323,133.403,107.05,130.313,104.281z"
				/>
		</g>
	</g>
</g>
</svg>
