<?xml version="1.0" encoding="utf-8"?>
<!-- Generator: Adobe Illustrator 16.0.4, SVG Export Plug-In . SVG Version: 6.00 Build 0)  -->
<!DOCTYPE svg PUBLIC "-//W3C//DTD SVG 1.1//EN" "http://www.w3.org/Graphics/SVG/1.1/DTD/svg11.dtd">
<svg version="1.1"
	 id="svg2" inkscape:version="0.46" sodipodi:docname="penguine.svg" inkscape:export-filename="/home/junior/entertainment/hobies/inkscape/penguine.png" inkscape:export-xdpi="150" inkscape:export-ydpi="150" inkscape:output_extension="org.inkscape.output.svg.inkscape" sodipodi:version="0.32" xmlns:dc="http://purl.org/dc/elements/1.1/" xmlns:cc="http://creativecommons.org/ns#" xmlns:rdf="http://www.w3.org/1999/02/22-rdf-syntax-ns#" xmlns:svg="http://www.w3.org/2000/svg" xmlns:sodipodi="http://sodipodi.sourceforge.net/DTD/sodipodi-0.dtd" xmlns:inkscape="http://www.inkscape.org/namespaces/inkscape"
	 xmlns="http://www.w3.org/2000/svg" xmlns:xlink="http://www.w3.org/1999/xlink" x="0px" y="0px" width="493.105px"
	 height="259.793px" viewBox="0 0 493.105 259.793" enable-background="new 0 0 493.105 259.793" xml:space="preserve">
<defs>
	
	
		<inkscape:perspective  inkscape:persp3d-origin="372.04724 : 350.78739 : 1" sodipodi:type="inkscape:persp3d" inkscape:vp_x="0 : 526.18109 : 1" inkscape:vp_y="0 : 1000 : 0" inkscape:vp_z="744.09448 : 526.18109 : 1" id="perspective10">
		</inkscape:perspective>
</defs>
<sodipodi:namedview  inkscape:current-layer="layer9" inkscape:pageshadow="2" inkscape:pageopacity="0.0" inkscape:document-units="px" inkscape:window-y="92" inkscape:window-x="188" inkscape:window-height="733" inkscape:window-width="795" showgrid="false" inkscape:cy="87.254529" inkscape:cx="121.77763" inkscape:zoom="2.8" borderopacity="1.0" bordercolor="#666666" pagecolor="#ffffff" id="base" gridtolerance="10000" guidetolerance="10" objecttolerance="10">
	</sodipodi:namedview>
<g id="layer6" transform="translate(-140.90642,-390.43093)" inkscape:groupmode="layer" inkscape:label="e">
</g>
<g id="layer9" inkscape:groupmode="layer" inkscape:label="h">
	<path id="path3174" fill="#CCCCCC" stroke="#000000" d="M136.85,214.442c-0.788,0.458-4.129,0.356-6.071,0.356
		c-4.302,0-8.542-1.071-12.857-1.071c-2.92,0-5.933-0.356-8.928-0.356c-3.442,0-7.195,1.352-10.357,2.143
		c-2.417,0.604-4.623,1.777-6.428,2.5c-2.271,0.908-4.738,1.698-7.143,2.5c-1.981,0.66-4.355,1.429-6.429,1.429
		c-2.971,0-0.37,0.886,0.714,1.429c1.482,0.74,3.701,0.356,5.357,0.356c3.28,0,1.043,0.825-0.714,2.144
		c-1.562,1.171-2.857,1.193-2.857,3.214c0,1.085,5.811-0.292,6.072-0.357c2.24-0.56,4.085-2.221,6.071-3.214
		c2.938-1.469,5.947-2.26,8.571-3.571c2.239-1.119,4.947-1.071,7.5-1.071c3.095,0,6.19,0,9.286,0c2.738,0,5.476,0,8.214,0
		c2.226,0,4.132-0.319,5.714-0.715c1.251-0.312,2.91-1.839,3.571-2.5C137.461,216.331,138.918,217.888,136.85,214.442z"/>
	<path id="path3170" fill="#CCCCCC" stroke="#000000" stroke-width="1.2762" d="M138.046,219.299
		c-0.914,0.643-4.792,0.501-7.045,0.501c-4.992,0-9.911-1.504-14.919-1.504c-3.389,0-6.884-0.501-10.36-0.501
		c-3.994,0-8.349,1.897-12.019,3.007c-2.805,0.849-5.364,2.496-7.459,3.51c-2.636,1.274-5.498,2.384-8.289,3.509
		c-2.299,0.927-5.054,2.005-7.46,2.005c-3.447,0-0.429,1.244,0.829,2.005c1.719,1.04,4.295,0.502,6.216,0.502
		c3.807,0,1.211,1.157-0.829,3.007c-1.812,1.645-3.315,1.677-3.315,4.512c0,1.522,6.743-0.409,7.045-0.501
		c2.6-0.786,4.741-3.118,7.045-4.512c3.409-2.062,6.901-3.171,9.946-5.013c2.598-1.571,5.74-1.504,8.703-1.504
		c3.592,0,7.184,0,10.775,0c3.177,0,6.354,0,9.532,0c2.583,0,4.794-0.447,6.631-1.002c1.452-0.439,3.377-2.581,4.144-3.51
		C138.755,221.95,140.446,224.135,138.046,219.299z"/>
</g>
<g id="layer4" transform="translate(-140.90642,-390.43093)" inkscape:groupmode="layer" inkscape:label="c">
</g>
<g id="layer5" transform="translate(-140.90642,-390.43093)" inkscape:groupmode="layer" inkscape:label="d">
</g>
<g id="layer2" transform="translate(-140.90642,-390.43093)" inkscape:groupmode="layer" inkscape:label="a">
	<path id="path2479" fill="#999999" stroke="#000000" d="M503.873,528.945c3.35-8.05,12.646-24.074,20-31.429
		c9.494-9.494,5.267-27.507,2.857-37.144c-4.596-18.38-21.305,5.217-22.857,11.429c-2.291,9.163-12.037,20.608-17.143,25.715
		c-9.818,9.817-11.121,14.132-22.857,20c-17.542,8.771,3.869,23.363,8.572,25.714c14.25,7.126,17.593,8.347,28.57,2.857
		C507.24,542.976,503.873,533.574,503.873,528.945z"/>
	<g id="color-me" transform="translate(-1.40642,242.15235)">
		<path id="path2451" fill="#666666" stroke="#000000" d="M274.285,367.791c17.483,0-33.352-13.352-45.714-25.715
			c-8.741-8.741-13.917-14.193-25.714-17.143c-13.269-3.317-20.598-11.578-31.429-14.286c-13.931-3.482-17.401-8.829-25.714-17.143
			c-13.899-13.899,26.384-11.429,31.429-11.429c11.552,0,21.437,13.576,28.571,17.144c10.858,5.429,23.514,8.021,37.143,11.428
			c13.577,3.395,28.011,2.857,42.857,2.857c10.992,0,23.714-8.071,37.143-11.429c12.003-3,19.878-8.541,31.428-11.429
			c14.925-3.73,23.993-5.369,40-8.571c13.488-2.697,20.809-5.714,37.144-5.714c13.648,0,30.675,0.525,40,2.857
			c12.368,3.092,20.626,8.013,34.286,11.428c13.795,3.449,20.984-3.841,28.57-11.428c5.75-5.749,29.352-2.857,40-2.857
			c5.91,0,19.83,16.972,22.857,20c8.455,8.454,9.309,25.806,11.43,34.285c-9.752,14.952-17.811,20.453-34.287,24.572
			c-10.836,2.709-24.078,3.468-34.285,8.571c-11.267,5.633-25.854,10.749-40,14.285c-12.922,3.23-34.332,6.417-48.571,2.857
			c-13.638-3.409-28.833-2.208-42.856-5.714c-13.498-3.375-27.929-2.857-42.858-2.857c-13.029,0-28.91-2.857-40-2.857
			C308.57,369.505,291.234,367.791,274.285,367.791z"/>
	</g>
	<g id="g2411" transform="matrix(0.7743007,-0.6328179,0.6328179,0.7743007,-171.87317,589.69508)">
		<path id="path2409" fill="#FFFFFF" stroke="#000000" d="M542.857,446.076c6.073-8.54,24.821-19.776,37.143-22.857
			c15.217-3.804,19.05,12.385,22.856,19.999c7.457,14.915,12.383,19.036,8.571,34.287c-3.681,14.723-20.001-26.157-19.999,5.715
			c-0.001,4.735-7.032,7.03-8.571,8.571c-9.074-21.777-12.958-24.08-28.571-36.571C550.476,452.172,546.666,449.124,542.857,446.076
			z"/>
	</g>
	<g id="g2403" transform="translate(188,194)">
		<path id="path2391" stroke="#000000" d="M231.428,366.362c-11.204-5.603,8.753-24.99,5.714-37.143
			c-3.676-14.706-5.714-21.021-5.714-37.144c0-12.052-5.714-21.884-5.714-37.143c0-13.648,0.525-30.676,2.857-40
			c4.652-18.613,5.227-21.673,20-14.286c8.416,4.208,14.646,21.445,17.143,31.429c2.615,10.459,14.318,17.273,17.143,28.571
			c3.164,12.655,5.715,24.01,5.715,37.144c0,14.353,6.299,28.055,8.57,37.143c3.287,13.145,15.344,13.836,28.572,17.143
			c12.389,3.098,19.662,8.487,31.428,11.429c9.256,2.313,16.848,16.551,20,22.857c4.453,8.906,17.037,14.18,22.857,20
			c5.43,5.43-12.322,11.429-20,11.429"/>
		<path id="path2401" stroke="#000000" d="M231.428,360.934c8.612,10.984,21.181,18.152,40,22.857
			c17.989,4.497,36.729,8.977,57.144,17.143c15.365,6.146,33.66,4.844,48.57,8.571c3.43,0.857,6.686,4.457,8.572,5.715"/>
	</g>
	<path id="path2383" fill="#FFFFFF" stroke="#000000" d="M306.909,589.608c6.38,1.392,32.081-0.163,42.857-2.856
		c11.139-2.785,20.537-10.269,28.571-14.286c9.957-4.979,24.272-6.068,34.285-8.571c14.063-3.516,17.081-8.446,22.857-20
		c5.202-10.403,2.094-28.772,0-37.143c-3.144-12.576-8.57-24.027-8.57-40c0-13.326,18.891-11.866,28.57-14.286
		c11.127-2.781,0.076,23.16,2.857,34.286c4.018,16.071,7.574,21.724,11.429,37.143c3.674,14.695,7.526,19.477,20,25.714
		c11.478,5.739,19.767,8.514,31.429,11.429c13.369,3.343,17.045,11.38,28.572,17.143c11.156,5.578,12.912,15.771,20,22.857
		c13.518,13.52-18.062,14.286-25.715,14.286c-10.648,0-24.983,6.245-34.286,8.571c-12.268,3.066-20.788,8.054-34.286,11.429
		c-13.428,3.356-22.443,5.714-37.143,5.714c-12.727,0-25.043,5.715-37.143,5.715c-14.042,0-30.125-0.389-40-2.857
		c-15.517-3.88-24.393-6.482-34.286-11.429c-10.048-5.024-24.677-9.026-34.286-11.429c-8.51-2.127-14.518-11.544-20-14.285
		C280.923,600.112,294.175,586.425,306.909,589.608z"/>
</g>
<g id="layer8" inkscape:groupmode="layer" inkscape:label="g">
	<g id="g2423" transform="translate(-143.15386,-266.31072)">
		<path id="path2421" fill="#4D4D4D" stroke="#000000" d="M608.571,450.076c-5.9,9.834,22.934,11.731,25.715,22.857
			c4.752,19.007-12.701,1.825-20,0c-5.764-1.44-10.033-2.857-17.143-2.857c-3.811-3.047-9.248-4.779-11.43-9.143
			c-10.33-20.659-1.334-6.019,11.43-8.571C600.952,451.601,604.763,450.839,608.571,450.076z"/>
	</g>
	
		<path id="path2398" sodipodi:ry="30.357143" sodipodi:rx="28.75" sodipodi:cy="165.86369" sodipodi:cx="422.32144" sodipodi:type="arc" fill="#1A1A1A" fill-opacity="0.7848" d="
		M436.296,173.881c-1.135,1.849-6.074,0.877-11.033-2.17c-4.957-3.047-8.053-7.016-6.918-8.864c1.137-1.849,6.076-0.877,11.033,2.17
		C434.335,168.064,437.433,172.033,436.296,173.881z"/>
</g>
<g id="layer3" transform="translate(-140.90642,-390.43093)" inkscape:groupmode="layer" inkscape:label="b">
</g>
<g id="layer7" transform="translate(-140.90642,-390.43093)" inkscape:groupmode="layer" inkscape:label="f">
</g>
<g id="layer1" transform="translate(-140.90642,-390.43093)" inkscape:groupmode="layer" inkscape:label="Layer 1">
</g>
</svg>
