<?xml version="1.0" encoding="utf-8"?>
<!-- Generator: Adobe Illustrator 16.0.4, SVG Export Plug-In . SVG Version: 6.00 Build 0)  -->
<!DOCTYPE svg PUBLIC "-//W3C//DTD SVG 1.1//EN" "http://www.w3.org/Graphics/SVG/1.1/DTD/svg11.dtd">
<svg version="1.1" id="svg2347" xmlns:svg="http://www.w3.org/2000/svg"
	 xmlns="http://www.w3.org/2000/svg" xmlns:xlink="http://www.w3.org/1999/xlink" x="0px" y="0px" width="486px" height="373px"
	 viewBox="454.847 18.681 486 373" enable-background="new 454.847 18.681 486 373" xml:space="preserve">
<g id="color-me">
	<path id="puma" d="M878.61,36.991c-2.912-0.474-7.761,10.253-10.645,9.292c-3.064-1.045-7.342-10.059-11.521-9.529
		c-1.783,0.237-8.874,14.433-8.874,14.433c-57.134,2.828-127.656,72.055-136.739,79.062c-4.36,3.386-22.862,22.528-56.674,37.351
		c-13.904,6.102-27.863,8.721-40.82,7.76c-17.274-1.24-36.598-16.412-48.481-37.072c-14.894-25.857-21.232-70.885-64.239-96.407
		c-6.019-3.566-19.657-11.549-27.543-1.491c-6.339,8.15-1.114,21.594,5.503,28.044c4.18,4.068,11.759,8.178,26.15,14.962
		c4.89,2.341,12.858,8.29,15.965,10.713c15.423,11.758,26.609,38.465,39.051,67.708c0,0,5.308,14.377,28.699,29.828
		c3.929,2.549,0.376,4.737-3.915,10.24c-5.503,7.286-16.536,36.961-15.115,82.127c0.236,8.024-3.01,11.508-6.659,18.068
		c-6.34,11.326-18.822,8.791-18.516,23.656c0.432,19.938-14.308,24.186-9.585,33.408c3.455,6.701,2.257,13.207,2.243,19.756
		c0,3.314-1.798,8.135,5.057,7.787c28.031-1.699,26.15-39.301,25.635-52.23c-0.446-1.713,0.836-4.777,1.059-4.918
		c1.394-1.016,18.85-14.586,20.006-15.742c21.204-21.566,35.191-40.945,42.993-60.867c5.169-13.277,10.49-26.358,19.588-34.773
		c10.198-9.306,22.694-14.544,33.659-14.6c77.975-0.404,94.011-34.606,115.229-51.659c0.641-0.474,2.591-1.574,3.705-1.658
		c1.185,0.083,2.118,1.491,2.885,2.146c8.191,8.582,16.439,11.382,27.528,11.382c26.345,0,54.682-23.084,59.684-17.944
		c3.817,4.012,0.501,12.274,7.509,13.653c10.129,2.034,20.619-7.969,19.783-16.454c-1.519-15.171-17.053-19.616-30.664-21.162
		c-11.284-1.198-20.465,1.895-22.583,2.132c-6.283,0.877-7.384-6.729-6.353-11.633c1.17-5.322,6.13-6.436,11.312-7.983
		c6.312-1.88,13.318,3.358,18.027,1.755c5.518-1.978,5.963-4.792,10.519-8.874c5.837-5.071,12.58-6.437,12.553-13.583
		c0-6.618-8.053-7.161-10.338-13.235c-1.17-3.037-0.836-6.199-1.866-8.052c-2.717-4.96-7.83-4.709-11.926-8.721
		C884.294,48.108,881.508,37.437,878.61,36.991"/>
</g>
</svg>
