<?xml version="1.0" encoding="utf-8"?>
<!-- Generator: Adobe Illustrator 16.0.4, SVG Export Plug-In . SVG Version: 6.00 Build 0)  -->
<!DOCTYPE svg PUBLIC "-//W3C//DTD SVG 1.1//EN" "http://www.w3.org/Graphics/SVG/1.1/DTD/svg11.dtd">
<svg version="1.1"
	 id="svg1378" inkscape:version="0.47pre4 r22446" sodipodi:docname="robot.svg" inkscape:output_extension="org.inkscape.output.svg.inkscape" sodipodi:version="0.32" xmlns:dc="http://purl.org/dc/elements/1.1/" xmlns:cc="http://creativecommons.org/ns#" xmlns:rdf="http://www.w3.org/1999/02/22-rdf-syntax-ns#" xmlns:svg="http://www.w3.org/2000/svg" xmlns:sodipodi="http://sodipodi.sourceforge.net/DTD/sodipodi-0.dtd" xmlns:inkscape="http://www.inkscape.org/namespaces/inkscape" sodipodi:modified="true"
	 xmlns="http://www.w3.org/2000/svg" xmlns:xlink="http://www.w3.org/1999/xlink" x="0px" y="0px" width="573px" height="961px"
	 viewBox="-10.116 -5.137 573 961" enable-background="new -10.116 -5.137 573 961" xml:space="preserve">
<g id="layer1" transform="translate(-22.727992,-126.08801)" inkscape:groupmode="layer" inkscape:label="Livello 1">
	
		<path id="rect1386" sodipodi:nodetypes="ccccc" inkscape:export-filename="/media/disk/clases_pef2009/programacion/robotijo.png" inkscape:export-xdpi="90" inkscape:export-ydpi="90" fill="#BABDB6" fill-opacity="0.9412" stroke="#000000" stroke-width="7.5196" stroke-linecap="round" d="
		M179.244,231.848c-13.564-23.494,251.39-1.809,251.39-1.809c37.98-5.426,15.566,120.502-3.617,153.728
		c0,23.512-220.038,22.203-245.964,7.234C181.053,391.001,195.062,259.246,179.244,231.848L179.244,231.848z"/>
	
		<path id="rect2114" sodipodi:nodetypes="ccccc" inkscape:export-filename="/media/disk/clases_pef2009/programacion/robotijo.png" inkscape:export-xdpi="90" inkscape:export-ydpi="90" fill="#BEC1BA" stroke="#000000" stroke-width="6.3916" stroke-linecap="round" d="
		M157.586,400.867c52.824,23.271,367.517,0.569,326.694,7.914c-29.35,41.342-16.725,279.848-16.725,279.848
		c-21.701-19.894-164.104-25.238-330.919-6.272C137.684,652.936,157.586,400.867,157.586,400.867L157.586,400.867z"/>
	
		<path id="rect2842" sodipodi:nodetypes="ccccc" inkscape:export-filename="/media/disk/clases_pef2009/programacion/robotijo.png" inkscape:export-xdpi="90" inkscape:export-ydpi="90" fill="#BABDB6" fill-opacity="0.9412" stroke="#000000" stroke-width="7.5196" stroke-linecap="round" d="
		M67.337,435.994c36.521-11.202,66.621-6.511,66.621-6.511l-11.003,214.938l-82.808-9.672
		C40.147,634.749,72.763,473.974,67.337,435.994z"/>
	
		<path id="rect2844" sodipodi:nodetypes="ccccc" inkscape:export-filename="/media/disk/clases_pef2009/programacion/robotijo.png" inkscape:export-xdpi="90" inkscape:export-ydpi="90" fill="#BABDB6" fill-opacity="0.9412" stroke="#000000" stroke-width="7.1805" stroke-linecap="round" d="
		M485.456,437.23c54.238-11.259,66.639,0.995,66.639,0.995s-10.57,124.84,9.961,215.216l-80.793,4.022
		C493.923,548.949,471.104,488.807,485.456,437.23L485.456,437.23z"/>
	
		<path id="rect2846" sodipodi:nodetypes="ccccc" inkscape:export-filename="/media/disk/clases_pef2009/programacion/robotijo.png" inkscape:export-xdpi="90" inkscape:export-ydpi="90" fill="#BABDB6" fill-opacity="0.9412" stroke="#000000" stroke-width="7.52" stroke-linecap="round" d="
		M193.712,700.265c39.932-23.055,94.045-5.426,94.045-5.426v307.456c0,0-31.142-8.515-106.705,0
		C184.67,975.166,193.712,700.265,193.712,700.265L193.712,700.265z"/>
	
		<path id="rect2848" sodipodi:nodetypes="ccccc" inkscape:export-filename="/media/disk/clases_pef2009/programacion/robotijo.png" inkscape:export-xdpi="90" inkscape:export-ydpi="90" fill="#BABDB6" fill-opacity="0.9412" stroke="#000000" stroke-width="7.5196" stroke-linecap="round" d="
		M421.911,695.17c-30.068-16.585-99.432-6.085-99.432-6.085c10.879,50.466-2.039,307.448-2.039,307.448
		c47.023,1.809,33.703-2.381,99.541-10.191C418.377,955.585,414.511,720.442,421.911,695.17L421.911,695.17z"/>
	
		<path id="path2858" sodipodi:nodetypes="csssc" inkscape:export-filename="/media/disk/clases_pef2009/programacion/robotijo.png" inkscape:export-xdpi="90" inkscape:export-ydpi="90" fill="#FFFFFF" fill-opacity="0.9412" stroke="#000000" stroke-width="8.4" stroke-linecap="round" d="
		M291.791,289.722c0,20.215-14.771,36.621-32.97,36.621s-32.971-16.406-32.971-36.621s20.832-41.672,39.032-41.672
		C283.082,248.05,291.791,269.507,291.791,289.722z"/>
	
		<path id="rect2862" sodipodi:nodetypes="ccccc" inkscape:export-filename="/media/disk/clases_pef2009/programacion/robotijo.png" inkscape:export-xdpi="90" inkscape:export-ydpi="90" fill="#EAEAFB" fill-opacity="0.7843" stroke="#000000" stroke-width="7.5196" stroke-linecap="round" d="
		M244.353,385.575l20.204-0.959l5.116,40.748h-25.32V385.575z"/>
	
		<path id="rect2864" sodipodi:nodetypes="ccccc" inkscape:export-filename="/media/disk/clases_pef2009/programacion/robotijo.png" inkscape:export-xdpi="90" inkscape:export-ydpi="90" fill="#EAEAFB" fill-opacity="0.7843" stroke="#000000" stroke-width="7.5196" stroke-linecap="round" d="
		M376.387,386.845l19.885-2.174v46.119l-22.763-2.877L376.387,386.845L376.387,386.845z"/>
	
		<path id="path2868" sodipodi:nodetypes="ccccc" inkscape:export-filename="/media/disk/clases_pef2009/programacion/robotijo.png" inkscape:export-xdpi="90" inkscape:export-ydpi="90" fill="#EAEAFB" fill-opacity="0.7843" stroke="#000000" stroke-width="7.5196" stroke-linecap="round" d="
		M358.831,654.781l19.885,4.156l-3.617,35.268l-19.145,8.878L358.831,654.781L358.831,654.781z"/>
	
		<path id="path2870" sodipodi:nodetypes="ccccc" inkscape:export-filename="/media/disk/clases_pef2009/programacion/robotijo.png" inkscape:export-xdpi="90" inkscape:export-ydpi="90" fill="#EAEAFB" fill-opacity="0.7843" stroke="#000000" stroke-width="7.5196" stroke-linecap="round" d="
		M230.423,658.399l19.885,4.156l0.904,43.405l-23.667-6.494L230.423,658.399z"/>
	
		<path id="path2872" sodipodi:nodetypes="ccccc" inkscape:export-filename="/media/disk/clases_pef2009/programacion/robotijo.png" inkscape:export-xdpi="90" inkscape:export-ydpi="90" fill="#EAEAFB" fill-opacity="0.7843" stroke="#000000" stroke-width="7.8863" stroke-linecap="round" d="
		M497.02,449.123l8.379,21.747l-50.09,0.528l-3.498-24.607L497.02,449.123L497.02,449.123z"/>
	
		<path id="path2874" sodipodi:nodetypes="ccccc" inkscape:export-filename="/media/disk/clases_pef2009/programacion/robotijo.png" inkscape:export-xdpi="90" inkscape:export-ydpi="90" fill="#EAEAFB" fill-opacity="0.7843" stroke="#000000" stroke-width="7.5196" stroke-linecap="round" d="
		M160.81,444.763l0.347,20.312l-38.802,8.805l-2.231-22.834L160.81,444.763z"/>
	
		<path id="path2551" sodipodi:nodetypes="csssc" inkscape:export-filename="/media/disk/clases_pef2009/programacion/robotijo.png" inkscape:export-xdpi="90" inkscape:export-ydpi="90" fill="#FFFFFF" fill-opacity="0.9412" stroke="#000000" stroke-width="6.6535" stroke-linecap="round" d="
		M339.51,282.852c2.364-20.076,18.954-34.642,37.028-32.513c18.074,2.129,30.824,20.151,28.459,40.227
		c-2.364,20.076-25.562,38.949-43.638,36.82C343.284,325.256,337.145,302.927,339.51,282.852L339.51,282.852z"/>
	<g id="color-me">
		
			<path id="path2553" sodipodi:nodetypes="csssc" inkscape:export-filename="/media/disk/clases_pef2009/programacion/robotijo.png" inkscape:export-xdpi="90" inkscape:export-ydpi="90" fill="#4E9A06" fill-opacity="0.9412" stroke="#000000" stroke-width="6.6535" stroke-linecap="round" d="
			M360.538,478.636c1.464-12.524,11.729-21.611,22.914-20.283c11.186,1.328,19.076,12.571,17.613,25.096
			c-1.465,12.524-15.82,24.298-27.006,22.97S359.075,491.16,360.538,478.636z"/>
	</g>
	
		<path id="path2555" sodipodi:nodetypes="csssc" inkscape:export-filename="/media/disk/clases_pef2009/programacion/robotijo.png" inkscape:export-xdpi="90" inkscape:export-ydpi="90" fill="#FFFFFF" fill-opacity="0.9412" d="
		M378.544,471.728c0.598-5.275,4.793-9.103,9.365-8.543c4.571,0.56,7.796,5.295,7.197,10.57c-0.598,5.274-6.465,10.233-11.037,9.674
		C379.499,482.869,377.946,477.003,378.544,471.728z"/>
	
		<path id="path3343" sodipodi:nodetypes="ccccc" inkscape:export-filename="/media/disk/clases_pef2009/programacion/robotijo.png" inkscape:export-xdpi="90" inkscape:export-ydpi="90" fill="#FFFFFF" fill-opacity="0.7843" stroke="#000000" stroke-width="7.5196" stroke-linecap="round" d="
		M338.496,348.972l1.265,27.263l-53.747,6.902v-34.165H338.496z"/>
	
		<path id="rect3345" sodipodi:nodetypes="ccccccccc" inkscape:export-filename="/media/disk/clases_pef2009/programacion/robotijo.png" inkscape:export-xdpi="90" inkscape:export-ydpi="90" d="
		M287.061,359.055l49.154,4.5c0.096,0,0.173,0.077,0.173,0.173v8.154c0,0.096-0.077,0.173-0.173,0.173h-47.654
		c-0.096,0,0.327,2.423,0.327,2.327l-0.5-10.654C288.388,363.632,286.965,359.055,287.061,359.055z"/>
	
		<path id="path3348" inkscape:export-filename="/media/disk/clases_pef2009/programacion/robotijo.png" inkscape:export-xdpi="90" inkscape:export-ydpi="90" sodipodi:ry="19" sodipodi:rx="14.5" sodipodi:cy="60.898743" sodipodi:cx="225.5" sodipodi:type="arc" d="
		M276.388,278.055c0,10.493-6.492,19-14.5,19c-8.008,0-14.5-8.507-14.5-19c0-10.494,6.492-19,14.5-19
		C269.895,259.055,276.388,267.561,276.388,278.055z"/>
	
		<path id="path3350" inkscape:export-filename="/media/disk/clases_pef2009/programacion/robotijo.png" inkscape:export-xdpi="90" inkscape:export-ydpi="90" sodipodi:ry="19" sodipodi:rx="14.5" sodipodi:cy="60.898743" sodipodi:cx="225.5" sodipodi:type="arc" d="
		M386.388,278.055c0,10.493-6.492,19-14.5,19s-14.5-8.507-14.5-19c0-10.494,6.492-19,14.5-19S386.388,267.561,386.388,278.055z"/>
	
		<path id="path3352" sodipodi:nodetypes="cccc" inkscape:export-filename="/media/disk/clases_pef2009/programacion/robotijo.png" inkscape:export-xdpi="90" inkscape:export-ydpi="90" stroke="#000000" d="
		M221.649,158.941c42.426,8.485,87.681,67.882,87.681,67.882l-25.456-1.414L221.649,158.941z"/>
	
		<path id="path3354" inkscape:export-filename="/media/disk/clases_pef2009/programacion/robotijo.png" inkscape:export-xdpi="90" inkscape:export-ydpi="90" sodipodi:ry="14.849242" sodipodi:rx="14.849242" sodipodi:cy="-126.80454" sodipodi:cx="161.92746" sodipodi:type="arc" stroke="#000000" stroke-width="4" d="
		M233.164,156.352c0,8.201-6.648,14.849-14.849,14.849s-14.849-6.648-14.849-14.849c0-8.201,6.648-14.85,14.849-14.85
		S233.164,148.151,233.164,156.352z"/>
	
		<path id="path3356" sodipodi:nodetypes="cccc" inkscape:export-filename="/media/disk/clases_pef2009/programacion/robotijo.png" inkscape:export-xdpi="90" inkscape:export-ydpi="90" stroke="#000000" d="
		M440.968,150.456c-42.426,8.485-120.208,74.953-120.208,74.953l25.456-1.414L440.968,150.456L440.968,150.456z"/>
	
		<path id="path3358" inkscape:export-filename="/media/disk/clases_pef2009/programacion/robotijo.png" inkscape:export-xdpi="90" inkscape:export-ydpi="90" sodipodi:ry="14.849242" sodipodi:rx="14.849242" sodipodi:cy="-126.80454" sodipodi:cx="161.92746" sodipodi:type="arc" stroke="#000000" stroke-width="4" d="
		M430.927,142.937c0,8.201,6.648,14.849,14.85,14.849c8.199,0,14.848-6.648,14.848-14.849c0-8.201-6.648-14.849-14.848-14.849
		C437.575,128.088,430.927,134.736,430.927,142.937z"/>
	<path id="path2901" fill="#2E3436" stroke="#000000" stroke-width="7.52" d="M61.843,638.359l-35.355,28.284l12.728,65.054
		l14.142-8.485l-5.657-48.083L77.4,658.158L61.843,638.359z"/>
	<path id="path3675" fill="#2E3436" stroke="#000000" stroke-width="7.52" d="M74.571,639.53l35.355,28.284l-12.728,65.054
		l-14.142-8.485l5.657-48.083l-29.698-16.971L74.571,639.53L74.571,639.53z"/>
	<path id="path3677" fill="#2E3436" stroke="#000000" stroke-width="7.52" d="M517.22,649.673l-35.355,28.284l12.729,65.054
		l14.143-8.485l-5.658-48.083l29.699-16.971L517.22,649.673L517.22,649.673z"/>
	<path id="path3679" fill="#2E3436" stroke="#000000" stroke-width="7.52" d="M525.948,650.844l35.355,28.285l-12.729,65.054
		l-14.143-8.485l5.658-48.084l-29.699-16.97L525.948,650.844L525.948,650.844z"/>
	
		<path id="rect3681" sodipodi:nodetypes="ccccc" fill="#2E3436" stroke="#000000" stroke-width="7.52" stroke-linecap="round" stroke-linejoin="round" d="
		M201.388,1009.055l64,1l32,56l-144-4L201.388,1009.055L201.388,1009.055z"/>
	
		<path id="path3686" sodipodi:nodetypes="ccccc" fill="#2E3436" stroke="#000000" stroke-width="7.52" stroke-linecap="round" stroke-linejoin="round" d="
		M341.388,1002.055l64,1.21l32,67.79l-124-4.842L341.388,1002.055L341.388,1002.055z"/>
	<path id="path3688" sodipodi:nodetypes="ccccc" fill="#EFF0EE" d="M263.369,1020.196l24.749,38.892l-26.163-0.707l-12.021-37.477
		L263.369,1020.196L263.369,1020.196z"/>
	<path id="path3690" sodipodi:nodetypes="ccccc" fill="#EFF0EE" d="M400.548,1008.176l24.748,55.154l-23.334-0.707l-8.485-53.74
		L400.548,1008.176L400.548,1008.176z"/>
</g>
</svg>
