<?xml version="1.0" encoding="UTF-8" standalone="no"?>
<!-- Created with Inkscape (http://www.inkscape.org/) -->

<svg
   xmlns:dc="http://purl.org/dc/elements/1.1/"
   xmlns:cc="http://creativecommons.org/ns#"
   xmlns:rdf="http://www.w3.org/1999/02/22-rdf-syntax-ns#"
   xmlns:svg="http://www.w3.org/2000/svg"
   xmlns="http://www.w3.org/2000/svg"
   xmlns:sodipodi="http://sodipodi.sourceforge.net/DTD/sodipodi-0.dtd"
   xmlns:inkscape="http://www.inkscape.org/namespaces/inkscape"
   width="610"
   height="610"
   id="svg2"
   version="1.1"
   inkscape:version="0.48.2 r9819"
   sodipodi:docname="eco_green_toy.svg"
   style="display:inline">
  <defs
     id="defs4" />
  <sodipodi:namedview
     id="base"
     pagecolor="#ffffff"
     bordercolor="#666666"
     borderopacity="1.0"
     inkscape:pageopacity="0.0"
     inkscape:pageshadow="2"
     inkscape:zoom="0.70000002"
     inkscape:cx="302.98345"
     inkscape:cy="381.84442"
     inkscape:document-units="px"
     inkscape:current-layer="svg2"
     showgrid="true"
     inkscape:window-width="721"
     inkscape:window-height="750"
     inkscape:window-x="2"
     inkscape:window-y="0"
     inkscape:window-maximized="0"
     showguides="true"
     inkscape:guide-bbox="true"
     gridtolerance="5"
     guidetolerance="3"
     objecttolerance="1"
     inkscape:snap-from-guide="false" />
  <metadata
     id="metadata7">
    <rdf:RDF>
      <cc:Work
         rdf:about="">
        <dc:format>image/svg+xml</dc:format>
        <dc:type
           rdf:resource="http://purl.org/dc/dcmitype/StillImage" />
        <dc:title />
      </cc:Work>
    </rdf:RDF>
  </metadata>
  <g
     inkscape:groupmode="layer"
     id="layer1"
     inkscape:label="layer"
     style="display:inline"
     transform="matrix(-1,0,0,1,597.55699,0)">
    <path
       inkscape:connector-curvature="0"
       style="fill:#784421;fill-opacity:1;fill-rule:evenodd;stroke:none"
       d="m 157.32499,137.21292 c -2.38141,0.47039 -0.76583,3.24139 -1.03256,4.13022 -4.71288,1.37315 -9.99966,0.42198 -14.45578,2.73488 -5.15752,-0.77304 -8.12515,3.94618 -12.69765,5.10697 -4.36155,1.76085 -5.06747,6.72843 -8.26045,9.6837 -2.57677,3.82511 -1.56643,10.19374 2.48371,12.58603 1.84352,1.31275 4.19097,-0.29354 5.33022,-1.06047 3.82099,4.65039 10.68918,2.17452 13.89765,-1.95348 1.81345,-1.79311 3.49065,-2.05166 4.57674,0.36279 3.47103,2.47075 8.57844,1.11888 12.13951,-0.13954 2.40824,-1.38717 -0.0969,-5.73659 3.12558,-5.6372 2.92078,-1.49772 6.90103,-3.18573 9.32091,0.0279 2.75597,2.55336 7.28205,3.87343 10.18603,1.64651 0.86865,3.12359 -0.0717,7.79053 4.13022,8.84649 2.53745,0.98823 5.4208,-0.71624 7.03254,2.28837 3.87256,2.32972 0.96819,7.68647 3.32093,11.19068 1.14755,3.17166 7.34001,3.16946 5.94417,7.14417 -0.14146,3.35778 4.68394,5.05822 2.93023,8.12092 0.7795,3.58088 1.76633,7.79944 4.99534,9.99067 0.32735,2.51479 3.65495,3.41782 4.52092,4.8 -0.30611,4.09027 1.60364,7.77805 1.98139,11.77672 2.237,2.31374 1.76338,5.76764 4.35348,7.45115 3.22885,1.61945 8.92503,1.00872 9.43254,5.69301 -0.80385,5.91298 5.68603,8.29699 8.23255,12.80928 2.88849,2.7969 5.99852,-1.16034 8.81858,-1.22791 3.28067,0.62387 7.52608,2.24171 10.77208,0.53023 2.44189,-4.87303 -8.50283,-4.38557 -5.27441,-9.40463 1.62171,-4.30857 -1.06562,-8.73035 -5.2465,-9.96277 -2.55066,-0.3368 -2.51702,-3.05212 -4.10232,-4.74418 0.13807,-2.50763 1.69738,-5.43539 -0.61395,-7.70231 -1.62705,-2.59233 -0.39182,-6.74426 -3.90697,-8.26045 -1.7646,-0.75961 -5.2279,-0.14672 -5.94418,-1.84186 -0.18353,-3.1837 -2.93021,-5.45675 -3.2372,-8.62324 -1.14744,-2.60222 -2.88055,-5.45964 -1.89767,-8.42789 -3.85549,-3.10487 0.81937,-9.73309 -4.04651,-12.58602 -5.0098,-1.24568 -5.94338,-6.87005 -7.75812,-10.93951 -0.27422,-1.75099 -4.015,-1.98789 -3.29302,-2.8186 4.50409,-5.27536 -4.27184,-10.9185 -8.95812,-10.99533 -0.34171,-3.15688 -7.402,-3.24124 -6.47441,-7.61859 1.42977,-4.43711 -4.76007,-6.05683 -8.093,-4.54883 -4.72966,-0.044 -9.33218,-2.47334 -13.33951,-4.63255 -6.52443,0.75449 -12.25554,-2.30532 -18.25113,-3.87906 -0.2173,0.005 -0.4418,-0.0388 -0.64186,0.0837 z"
       id="hair" />
    <path
       style="fill:#784421;fill-opacity:1;fill-rule:evenodd;stroke:none;display:inline"
       d="m 403.57568,273.59406 c 0.51711,0.79088 1.02742,1.62492 1.53488,2.48371 12.4121,21.00508 12.91912,20.95175 13.53486,32.6511 0.61576,11.69938 -5.55168,33.22899 -6.16743,45.5441 -0.61576,12.31513 -1.8446,8.00739 8.62324,27.71158 10.46785,19.7042 4.32558,16.63603 4.32558,34.49296 0,0.26195 -0.002,0.49705 0,0.75348 4.66188,1.45134 9.16687,-1.96619 10.85579,-6.8651 5.98956,-3.37972 7.01425,-11.00079 6.33487,-17.24648 1.31138,-6.5336 -2.05441,-12.55252 -3.82325,-18.64182 -0.75683,-7.42178 -6.17968,-13.27599 -7.22789,-20.59531 0.0313,-7.04035 0.0338,-14.13341 -0.7814,-21.15345 -0.0916,-6.20235 2.81916,-12.56488 -0.39069,-18.86508 -0.98275,-7.53582 -1.54901,-15.42469 -5.94418,-22.04647 -1.27663,-6.24431 -6.03778,-10.88252 -9.6837,-15.46044 -0.73889,-3.44119 -7.01973,-2.43344 -11.19068,-2.76278 z"
       id="tail"
       inkscape:connector-curvature="0" />
    <path
       style="color:#000000;fill:#d38d5f;fill-opacity:1;fill-rule:evenodd;stroke:none;stroke-width:0.78530222;marker:none;visibility:visible;display:inline;overflow:visible;enable-background:accumulate"
       d="m 167.90171,161.21287 c -1.84711,0.0566 -3.82681,0.97149 -5.46975,1.81395 -3.22244,-0.0994 -0.71734,4.25003 -3.12558,5.6372 -3.56107,1.25842 -8.66848,2.61029 -12.13951,0.13954 -1.08609,-2.41445 -2.76329,-2.1559 -4.57674,-0.36279 -3.14286,4.04359 -9.7843,6.47671 -13.64648,2.20464 -5.77669,6.72568 -5.42137,12.97398 -9.54417,24.75345 -4.84032,13.82946 -13.84182,19.36119 -20.065079,24.89297 -6.223262,5.5318 -6.204642,24.20459 -4.130225,28.35344 2.074418,4.14884 6.223244,4.15813 6.223244,4.15813 l 12.44649,-5.52557 -7.61859,6.22324 c 0,0 2.76586,8.27285 12.44649,9.6558 9.68063,1.38295 11.76119,-11.73641 19.3674,-16.57672 6.84974,-4.35891 16.49807,-2.57444 25.92553,-3.18139 -0.39206,0.91783 -0.51912,1.60181 -0.33488,1.78605 0,0 8.28836,11.76426 8.28836,29.05111 0,17.28682 11.07593,60.85876 20.06507,72.61381 2.30924,3.01977 6.6169,6.15868 12.13952,9.20929 -0.6775,16.92141 -2.00229,37.8624 -2.45581,41.9441 -0.69147,6.22327 -6.24496,11.06663 -5.55348,22.13019 0.69148,11.06358 -7.58759,26.9674 -10.35347,31.11622 -2.7659,4.14885 -5.53797,9.00152 -6.92092,13.84184 -1.38295,4.84031 -8.28835,5.52557 -8.28835,5.52557 l -0.7814,1.17209 c 9.06429,1.48575 18.21406,2.89452 27.29298,4.21394 3.5199,-2.43399 9.73693,-7.23564 8.73486,-10.24184 -1.38294,-4.14884 6.9085,-31.79837 11.74882,-39.40457 4.8403,-7.60622 9.01393,-11.07593 9.01393,-20.06508 0,-6.63027 10.12108,-21.88181 18.78136,-34.99528 6.4341,1.55781 12.59857,2.70816 17.86043,3.20929 29.04189,2.7659 82.96416,-9.68058 91.95332,-12.44649 0.22785,-0.0701 0.40701,-0.127 0.61395,-0.19534 4.48692,5.70127 9.04319,10.70732 13.59067,15.82322 9.8521,11.08361 23.4103,16.61269 24.64182,23.386 1.23151,6.77332 8.00025,14.77625 11.07904,19.70229 3.07879,4.92606 6.13773,21.55043 6.75348,28.93948 0.40074,4.80889 -1.52569,13.20367 -2.93023,18.5302 7.77125,-1.65802 15.19132,-3.39579 22.29764,-5.16278 -0.06,-1.32747 0.027,-2.89691 0.33488,-4.74418 1.23151,-7.38907 6.79401,-10.45247 2.48371,-14.76276 -4.31029,-4.31029 -8.62323,-9.2407 -8.62323,-27.09762 0,-17.85693 6.14227,-14.78876 -4.32558,-34.49296 -10.46784,-19.70419 -9.239,-15.39645 -8.62324,-27.71158 0.61575,-12.31511 6.78319,-33.84472 6.16743,-45.5441 -0.61574,-11.69935 -1.12276,-11.64602 -13.53486,-32.6511 -8.00484,-13.54663 -17.24734,-18.46898 -26.48367,-20.31624 -8.73856,-0.14285 -26.19535,-2.42586 -31.92552,1.75809 -30.50947,15.84279 -54.9969,12.50532 -81.93472,1.25582 -1.7925,-1.70744 -4.08454,-2.83731 -7.06046,-3.2093 -0.32409,-0.0405 -0.81174,-0.32058 -1.42325,-0.7814 -2.83868,0.41649 -6.04554,-0.7045 -8.65115,-1.19999 -2.82006,0.0676 -5.93009,4.0248 -8.81858,1.2279 -2.54652,-4.51228 -9.0364,-6.89629 -8.23255,-12.80928 -0.50751,-4.68429 -6.20369,-4.07356 -9.43254,-5.69301 -2.5901,-1.6835 -2.11648,-5.13741 -4.35348,-7.45115 -0.37775,-3.99866 -2.2875,-7.68645 -1.98139,-11.77672 -0.86597,-1.38217 -4.19357,-2.28521 -4.52092,-4.79999 -3.22901,-2.19123 -4.21584,-6.4098 -4.99534,-9.99068 1.75371,-3.06269 -3.07169,-4.76313 -2.93023,-8.12091 1.39584,-3.97471 -4.79662,-3.97251 -5.94417,-7.14418 -2.35274,-3.50421 0.55163,-8.86095 -3.32093,-11.19067 -1.61174,-3.00461 -4.49509,-1.30014 -7.03254,-2.28837 -4.20193,-1.05597 -3.26157,-5.7229 -4.13022,-8.84649 -2.90398,2.22691 -7.43006,0.90684 -10.18603,-1.64651 -1.0587,-1.40597 -2.41452,-1.88591 -3.85116,-1.84186 z"
       id="body"
       inkscape:connector-curvature="0"
       sodipodi:nodetypes="ccccccssscccssccsscsssscccssscsccsssscccssssssccccccccccccccccccccc" />
    <path
       sodipodi:type="arc"
       style="fill:#784421;fill-opacity:1;stroke:none"
       id="eye"
       sodipodi:cx="137.1282"
       sodipodi:cy="193.05956"
       sodipodi:rx="4.7982244"
       sodipodi:ry="4.7982244"
       d="m 141.92643,193.05956 c 0,2.64998 -2.14824,4.79822 -4.79823,4.79822 -2.64998,0 -4.79822,-2.14824 -4.79822,-4.79822 0,-2.64999 2.14824,-4.79823 4.79822,-4.79823 2.64999,0 4.79823,2.14824 4.79823,4.79823 z"
       transform="translate(10.101525,2.5253813)" />
    <g
       id="color-me">
      <path
         d="m 54.213524,449.64109 c 0,0 165.925026,36.73086 233.026576,33.88222 147.28383,-6.22327 237.17539,-52.55199 247.54747,-55.31789 10.37211,-2.76589 17.28685,-4.84032 15.21243,1.38296 -2.07443,6.22326 -6.91474,24.89303 -17.28684,24.89303 -10.3721,0 -7.60621,-1.38295 -13.82947,2.7659 -6.22326,4.14884 -85.08667,62.63745 -212.28235,67.76439 -124.45712,5.04398 -196.35705,-30.93137 -221.2715,-44.94576 -11.063579,-6.22327 -23.510105,-3.45737 -23.510105,-3.45737 0,0 -18.669776,-26.96748 -13.82946,-27.65895 4.840302,-0.69146 6.914723,0.69147 6.223249,0.69147 z"
         sodipodi:nodetypes="cssssssscsc"
         id="rocker"
         style="color:#000000;fill:#4c2304;fill-opacity:1;fill-rule:evenodd;stroke:none;stroke-width:0.78530222;marker:none;visibility:visible;display:inline;overflow:visible;enable-background:accumulate"
         inkscape:connector-curvature="0" />
      <path
         inkscape:connector-curvature="0"
         id="bib"
         d="m 268.68091,260 71.2096,0 c 0.85208,0 1.53806,0.68597 1.53806,1.53805 l 0,81.20961 c 0,0.85208 -0.68598,1.53805 -1.53806,1.53805 l -71.2096,0 c -0.85209,0 -1.53806,-0.68597 -1.53806,-1.53805 l 0,-81.20961 c 0,-0.85208 0.68597,-1.53805 1.53806,-1.53805 z"
         style="fill:#000000;fill-opacity:1" />
    </g>
  </g>
</svg>
