<?xml version="1.0" encoding="utf-8"?>
<!-- Generator: Adobe Illustrator 16.0.4, SVG Export Plug-In . SVG Version: 6.00 Build 0)  -->
<!DOCTYPE svg PUBLIC "-//W3C//DTD SVG 1.1//EN" "http://www.w3.org/Graphics/SVG/1.1/DTD/svg11.dtd">
<svg version="1.1" id="Layer_1" xmlns="http://www.w3.org/2000/svg" xmlns:xlink="http://www.w3.org/1999/xlink" x="0px" y="0px"
	 width="52.333px" height="62px" viewBox="2.167 0 52.333 62" enable-background="new 2.167 0 52.333 62" xml:space="preserve">
<g>
	<path fill="#A3B5BE" d="M49.425,44.575c-0.392-0.39-2.334-1.453-2.334-1.453s-3.066-28.527-3.627-29.451
		c-0.562-0.922-6.617-6.836-15.48-6.836c-7.286-0.001-14.266,5.312-14.79,6.836c-0.542,1.583-3.63,29.447-3.63,29.447
		s-1.945,0.968-2.247,1.457c-0.3,0.489-0.848,2.618-0.496,3.976c0.352,1.358,11.271,5.432,21.537,5.432
		c9.726,0,20.922-4.285,21.553-5.432C50.305,47.834,49.814,44.968,49.425,44.575"/>
	<path fill="#FFFFFF" d="M21.573,20.682c0,0.963-0.782,1.739-1.741,1.739c-0.958,0-1.739-0.776-1.739-1.739
		c0-0.959,0.781-1.736,1.739-1.736C20.791,18.946,21.573,19.723,21.573,20.682z"/>
	<path fill="#FFFFFF" d="M29.407,18.945c0,0.963-0.781,1.738-1.741,1.738c-0.955,0-1.737-0.775-1.737-1.738
		c0-0.958,0.782-1.736,1.737-1.736C28.625,17.209,29.407,17.986,29.407,18.945"/>
	<path fill="#FFFFFF" d="M29.407,25.956c0,0.959-0.781,1.736-1.741,1.736c-0.955,0-1.737-0.777-1.737-1.736
		c0-0.958,0.782-1.739,1.737-1.739C28.625,24.217,29.407,24.998,29.407,25.956"/>
	<path fill="#FFFFFF" d="M29.407,33.846c0,0.959-0.781,1.737-1.741,1.737c-0.955,0-1.737-0.778-1.737-1.737
		c0-0.961,0.782-1.738,1.737-1.738C28.625,32.107,29.407,32.885,29.407,33.846"/>
	<path fill="#FFFFFF" d="M37.24,20.681c0,0.962-0.781,1.74-1.743,1.74c-0.955,0-1.736-0.777-1.736-1.74
		c0-0.958,0.781-1.736,1.736-1.736C36.459,18.945,37.24,19.722,37.24,20.681"/>
	<path fill="#FFFFFF" d="M36.003,28.562c0,0.576-0.468,1.042-1.042,1.042c-0.569,0-1.037-0.465-1.037-1.042
		c0-0.572,0.468-1.038,1.037-1.038C35.535,27.523,36.003,27.99,36.003,28.562"/>
	<path fill="#FFFFFF" d="M36.003,33.541c0,0.572-0.468,1.038-1.042,1.038c-0.569,0-1.037-0.466-1.037-1.038
		c0-0.575,0.468-1.039,1.037-1.039C35.535,32.502,36.003,32.966,36.003,33.541"/>
	<path fill="#FFFFFF" d="M20.697,28.562c0,0.576-0.463,1.042-1.038,1.042c-0.575,0-1.042-0.465-1.042-1.042
		c0-0.572,0.468-1.038,1.042-1.038C20.233,27.524,20.697,27.99,20.697,28.562z"/>
	<circle fill="#FFFFFF" cx="19.657" cy="33.541" r="1.04"/>
	<path fill="#FFFFFF" d="M6.821,48.551c0.002,0.008,0.004,0.012,0.006,0.018C6.825,48.562,6.823,48.559,6.821,48.551 M49.91,48.551
		c-0.631,1.146-11.827,5.432-21.553,5.432C38.367,53.98,49.602,49.534,49.91,48.551 M49.428,44.58
		c0.078,0.081,0.158,0.257,0.236,0.494C49.589,44.838,49.508,44.663,49.428,44.58 M49.427,44.577c0,0,0,0.002,0.001,0.002
		C49.427,44.579,49.427,44.577,49.427,44.577"/>
	<path fill="#B5C4CB" d="M34.961,34.579c-0.569,0-1.037-0.466-1.037-1.038c0-0.575,0.468-1.039,1.037-1.039
		c0.574,0,1.042,0.464,1.042,1.039C36.003,34.113,35.535,34.579,34.961,34.579 M34.961,29.603c-0.569,0-1.037-0.465-1.037-1.042
		c0-0.572,0.468-1.038,1.037-1.038c0.574,0,1.042,0.466,1.042,1.038C36.003,29.138,35.535,29.603,34.961,29.603 M35.497,22.42
		c-0.955,0-1.736-0.777-1.736-1.74c0-0.958,0.781-1.736,1.736-1.736c0.962,0,1.743,0.777,1.743,1.736
		C37.24,21.643,36.459,22.42,35.497,22.42 M27.983,6.835L27.983,6.835L27.88,17.222c0.858,0.105,1.526,0.838,1.526,1.723
		c0,0.902-0.685,1.639-1.56,1.729l-0.035,3.549c0.893,0.075,1.595,0.824,1.595,1.733c0,0.922-0.722,1.676-1.629,1.732l-0.044,4.421
		c0.929,0.035,1.673,0.799,1.673,1.735c0,0.947-0.763,1.72-1.707,1.737l-0.031,3.182c0,0-9.051,0.355-18.105,4.354l0,0
		c0,0-1.945,0.968-2.247,1.457l0,0c-0.3,0.489-0.812,2.723-0.496,3.976l0,0c0.002,0.008,0.004,0.012,0.006,0.018
		c0.415,1.273,11.465,5.414,21.531,5.414l0,0c9.726,0,20.922-4.285,21.553-5.432l0,0c0.244-0.777,0.042-2.57-0.246-3.477
		c-0.078-0.237-0.158-0.413-0.236-0.494v-0.001c-0.001,0-0.001-0.002-0.001-0.002c-0.001,0-0.001-0.001-0.002-0.002l0,0
		c-0.392-0.39-2.334-1.453-2.334-1.453s-3.066-28.527-3.627-29.451C42.902,12.749,36.847,6.835,27.983,6.835"/>
	<path fill="#FFFFFF" d="M27.881,17.222l-0.034,3.452c0.875-0.09,1.56-0.827,1.56-1.729C29.407,18.06,28.739,17.327,27.881,17.222"
		/>
	<path fill="#FFFFFF" d="M27.812,24.223l-0.034,3.466c0.907-0.057,1.629-0.811,1.629-1.732
		C29.407,25.046,28.704,24.297,27.812,24.223"/>
	<path fill="#FFFFFF" d="M27.733,32.109L27.7,35.583c0.944-0.019,1.707-0.79,1.707-1.737C29.407,32.908,28.662,32.146,27.733,32.109
		"/>
	<path fill="#FFFFFF" d="M35.497,18.945c-0.955,0-1.736,0.777-1.736,1.736c0,0.962,0.781,1.74,1.736,1.74
		c0.962,0,1.743-0.777,1.743-1.74C37.24,19.722,36.459,18.945,35.497,18.945"/>
	<path fill="#FFFFFF" d="M34.961,27.523c-0.569,0-1.037,0.466-1.037,1.038c0,0.576,0.468,1.042,1.037,1.042
		c0.574,0,1.042-0.465,1.042-1.042C36.003,27.99,35.535,27.523,34.961,27.523"/>
	<path fill="#FFFFFF" d="M34.961,32.502c-0.569,0-1.037,0.464-1.037,1.039c0,0.572,0.468,1.038,1.037,1.038
		c0.574,0,1.042-0.466,1.042-1.038C36.003,32.966,35.535,32.502,34.961,32.502"/>
	<g id="color-me">
		<path fill="#647882" d="M44.824,47.268c0,0-6.8,3.602-16.467,3.602c-9.095,0-16.447-3.602-16.447-3.602s7.232-4.147,16.447-4.147
			C37.955,43.119,44.824,47.268,44.824,47.268z"/>
	</g>
</g>
</svg>
