<?xml version="1.0" encoding="utf-8"?>
<!-- Generator: Adobe Illustrator 16.0.4, SVG Export Plug-In . SVG Version: 6.00 Build 0)  -->
<!DOCTYPE svg PUBLIC "-//W3C//DTD SVG 1.1//EN" "http://www.w3.org/Graphics/SVG/1.1/DTD/svg11.dtd">
<svg version="1.1"
	 id="svg7394" inkscape:version="0.48.1 r9760" sodipodi:docname="Novo documento 11" xmlns:dc="http://purl.org/dc/elements/1.1/" xmlns:cc="http://creativecommons.org/ns#" xmlns:rdf="http://www.w3.org/1999/02/22-rdf-syntax-ns#" xmlns:svg="http://www.w3.org/2000/svg" xmlns:sodipodi="http://sodipodi.sourceforge.net/DTD/sodipodi-0.dtd" xmlns:inkscape="http://www.inkscape.org/namespaces/inkscape"
	 xmlns="http://www.w3.org/2000/svg" xmlns:xlink="http://www.w3.org/1999/xlink" x="0px" y="0px" width="190px" height="332px"
	 viewBox="0 0 190 332" enable-background="new 0 0 190 332" xml:space="preserve">
<sodipodi:namedview  inkscape:current-layer="layer1" inkscape:pageshadow="2" inkscape:pageopacity="0.0" inkscape:document-units="px" inkscape:window-y="26" inkscape:window-x="0" inkscape:window-height="739" inkscape:window-width="1280" showgrid="false" inkscape:cy="158.12889" inkscape:cx="114.88224" inkscape:zoom="1.4733459" borderopacity="1.0" bordercolor="#666666" pagecolor="#ffffff" id="base" inkscape:window-maximized="1" inkscape:showpageshadow="false">
	</sodipodi:namedview>
<g id="layer1" transform="translate(0,-720.36218)" inkscape:groupmode="layer" inkscape:label="Camada 1">
	<g id="g7384" transform="translate(-1386.9438,880.92318)">
		<g id="color-me">
			
				<path id="path4333" sodipodi:nodetypes="ccccsccccccccccccccccccccccccssccccccccccccccccccccccccccccccccccccscccccccccccccccccccccccccsccccccccccccccccccccccscccccsscccscccsccccccccc" inkscape:connector-curvature="0" fill="#774C2F" d="
				M1431.648-108.935l-25.191,1.313l-0.875,5.751h-0.063c0,0-5.401,3.203-6.814,5.813c-3.344,6.18-3.493,13.905-2.625,20.878
				c13.223,30.874,13.415,61.229,13.252,94.078l2.875,0.251l4.438-1.813c1.085,2.336,2.061,5.183,2.125,8.313
				c-0.527,53.176,3.338,63.73-3.813,120.021l2.5-0.313c-0.026,0.197-0.041,0.328-0.063,0.501h-0.188
				c-3.728,30.741-4.478,20.771,25.254,23.254c3.222,0.672,22.316,2.312,22.316,2.312l4.625-4.126l-2.938-8.438l-11.814-2.063
				l-19.565-9.001v-1.938c0.126-4.167,2.407-3.097,6.001-3.313l7.313,2.062l1.125-3.812c11.216-25.559,13.188-53.22,15.752-80.326
				l1.75,2.25l0.312,0.938c8.705,6.839,15.193,13.272,18.816,24.004l0.25,3.876c2.051,21.62,13.349,39.951,21.628,51.445
				c1.961,2.723,7.212,0.982,4.626,3.188c-3.077,2.625,3.08,6.095,4.125,8.813l3.751,5.626l2.626,4.563l0.188,0.188l0.125,0.25
				l1.812,3.188l2.312-1.688l3.876-1.938l2.688-3.001l32.693-21.128c-0.412-2.461,0.124-7.725-3.063-9.127l-21.565,7.189
				l-4.376,0.938l-4.188-5.689l-0.187-7.25l4.5-2.626c-14.699-29.722-31.741-76.797-56.196-100.079l-0.375-0.438l-1.438-0.625
				l-10.126-15.189l14.189-0.25l-0.188-0.5c-11.73-31.006-19.378-30.4-19.378-62.073l35.756,7.251l5.251-6.313l1.562,11.064
				l6.813-7.376v4.188l-9.438,9.939l15.689-7.313l-10.439,13.064l13.064-13.064l4.814-12.002l11.314-0.563
				c0.028,0.008,0.031-0.01,0.062,0c0.039,0.031,0.701,0.548,1.625,1.188c0.233,0.396,0.426,0.801,0.812,1
				c0.298,0.153,0.703,0.253,1.125,0.312c1.77,1.05,3.864,1.992,5.439,2c0.721,0.004,1.509-0.036,2.312-0.125l1.375,1.188
				c0,0-0.025,2.063,0.688,2.625c0.361,0.285,1.038,0.312,1.375,0c0.808-0.746,0.25-3.313,0.25-3.313l-0.688-1.062
				c1.116-0.311,2.146-0.761,3.062-1.313l1.751,3.438c0.37,0.74,1.105-0.343,1.25-0.812c0.399-1.296-1.35-3.754-1.438-3.875
				c0.202-0.217,0.402-0.383,0.562-0.625c0,0,1.229,4.266,2.438,3.563l0.688-0.438c1.325-0.771-1.625-4.126-1.625-4.126
				l-0.751-0.938c0.074-0.564-0.038-1.08-0.188-1.625l2.001,2.875c0,0,1.258,3.714,2.25,2.875l0.812-0.625
				c0.897-0.758-1.25-3.313-1.25-3.313l-2.25-3.063l-6.002-4.188l-0.438-0.187c-0.666-0.438-1.372-0.8-2-1.125
				c-3.226-1.671-10.877-0.625-10.877-0.625l-11.252,1.062l-3.062,0.125l-52.821-9.689l-5.188-2.875l2.063,0.75l14.627-2.625
				l19.378,1.438l8.877,2.25l5.188-2.125l14.003,5.313l-8.001-7.501l19.19,5.876l-11.189-7.563l14.815,8.626l-3.751-13.627
				l3.25-7.001l0.563-0.188l5.188,1.563c2.3-0.146,4.549-0.625,6.814-1.063c0.385-0.036,0.791-0.081,1.188-0.125l3.938,2.125
				c1.615,0.539,1.812,2.149,3.063,3.5s2.001,0.426,1.875-0.5c-0.125-0.926-1.079-2-1.625-3c-1.335-0.667-2.005-1.902-3.126-2.75
				c1.188-0.243,2.273-0.514,3.188-0.875c0.513,0.26,0.964,0.465,1.625,0.813c1.998,0.572,2.837,3.213,3.751,4.125
				c0.913,0.912,1.155-0.793,1.125-1.625s-0.833-1.833-1.25-2.75c-0.813-0.641-1.695-1.247-2.563-1.813
				c0.304-0.167,0.612-0.303,0.876-0.5c0.654,1.062,1.856,1.822,2.688,1.562c1.091-0.341,0-1.84,0-2.75
				c-0.45-0.579-0.896-1.093-1.375-1.625c-0.051-1.003-0.355-2.077-0.812-3.125c2.525,1.049,1.296,3.758,2.438,5.001
				c1.231,1.34,1.76-1.689,1.625-2.188c-0.153-2.9-1.999-3.778-3-5.688l-4.063-1.25l-0.063-0.063
				c-1.412-1.203-2.997-1.922-4.562-1.562c-25.39,12.388-54.637,5.26-79.826,10.251l-7.813,0.5l-43.507-8.251L1431.648-108.935z"/>
			<path id="path4420" sodipodi:nodetypes="ccccccccsccc" inkscape:connector-curvature="0" fill="#774C2F" d="M1415.521-159.925
				c-6.01,1.8-8.35-1.083-21.597,9.821l-6.98,13.272l8.087,21.192l12.356,3.71l-2.172,13.191l29.087-0.356l-4.29-13.131
				c6.587-3.268,11.767-2.672,12.305-9.642c0.574-7.42-3.956-22.395-12.297-24.969l-1.374-2.115L1415.521-159.925z"/>
		</g>
		
			<linearGradient id="path4454_1_" gradientUnits="userSpaceOnUse" x1="1749.5522" y1="100.0943" x2="1721.2079" y2="148.5858" gradientTransform="matrix(2.0003 0 0 -2.0003 -1973.4976 324.7869)">
			<stop  offset="0" style="stop-color:#9D643D"/>
			<stop  offset="1" style="stop-color:#9D643D;stop-opacity:0"/>
		</linearGradient>
		
			<path id="path4454" sodipodi:nodetypes="cccccccccsscccccccccccccccccccc" inkscape:connector-curvature="0" fill="url(#path4454_1_)" d="
			M1468.244,5.724c-8.201-3.638-15.535-9.442-29.442,1.188l-5.876,16.439l7.063,4.688l23.566,31.755l0.188,1.062v0.062
			c10.528,7.986,18.333,14.586,22.441,26.755l0.25,3.876c2.052,21.621,13.346,39.968,21.625,51.463
			c1.961,2.722,7.181,0.922,4.595,3.128c-3.077,2.625,3.114,6.138,4.16,8.857l3.751,5.626l2.625,4.562l0.188,0.188l0.125,0.25
			l1.812,3.188l2.312-1.688l3.876-1.938l2.688-3l32.688-21.156c-0.412-2.461,0.085-7.713-3.103-9.115l-21.522,7.205l-4.376,0.938
			l-4.19-5.692l-0.236-7.255l4.55-2.625c-14.701-29.721-31.74-76.789-56.194-100.072l-0.375-0.438l-1.438-0.625L1468.244,5.724z"/>
		
			<linearGradient id="path4476_1_" gradientUnits="userSpaceOnUse" x1="1660.8833" y1="95.8804" x2="1611.6235" y2="142.0374" gradientTransform="matrix(1.8426 0 0 -2.0003 -1582.5771 324.7869)">
			<stop  offset="0" style="stop-color:#9D643E"/>
			<stop  offset="1" style="stop-color:#9D643E;stop-opacity:0"/>
		</linearGradient>
		<path id="path4476" sodipodi:nodetypes="ccccccccccccccccc" inkscape:connector-curvature="0" fill="url(#path4476_1_)" d="
			M1439.72,4.522l-23.838,14.69l2.591,6.438c0,0,3.074,63.73-3.513,120.021l2.304-0.313c-3.789,31.459-4.7,21.257,25.22,23.755
			c3.221,0.672,22.269,2.327,22.269,2.327l4.66-4.13l-2.929-8.461l-11.841-2.07l-19.53-8.982l-0.115-4.751l4.031-0.5l12.154,2.062
			l1.574-7.339c15.045-37.22,12.989-113.306,12.989-113.306L1439.72,4.522z"/>
		<g id="g4518" transform="matrix(2.0003291,0,0,2.0003291,525.5616,-159.69266)">
			<path id="path4389" inkscape:connector-curvature="0" fill="#774C2F" d="M456,13.969c-0.016,0.263-0.121,0.555-0.375,0.844
				C455.882,14.525,455.986,14.237,456,13.969z M435.125,19.656c0.254,0.027,0.454,0.161,0.656,0.312
				C435.581,19.815,435.379,19.683,435.125,19.656z M438.469,29.875c-0.381,0.278-0.774,0.607-1.125,0.938
				C437.696,30.479,438.087,30.157,438.469,29.875z M448.375,31.25l-7.344,1.156l-0.312,4.406l5,7.937l23.531,7.375l0.125,0.375
				l17.875,3.625l2.625-3.156l0.781,5.531l3.406-3.688v2.094l-4.718,4.969l7.843-3.656l-5.219,6.531l6.531-6.531l2.563-6.375h5.218
				c0,0,0.111,0.042,0.187,0.062v0.062h0.125c0,0,0.346,0.275,0.813,0.594c0.008,0.013,0.023,0.018,0.031,0.031
				c0.104,0.177,0.202,0.348,0.375,0.437c0.141,0.072,0.333,0.095,0.531,0.125c0.758,0.45,1.614,0.891,2.281,0.969
				c0.518,0.061,1.06,0.037,1.594-0.031l0.719,0.625c0,0-0.013,1.031,0.344,1.313c0.18,0.142,0.518,0.156,0.687,0
				c0.403-0.373,0.125-1.656,0.125-1.656l-0.406-0.625c0.54-0.193,1.043-0.462,1.5-0.781l0.969,1.937
				c0.186,0.37,0.553-0.172,0.625-0.406c0.205-0.664-0.75-1.969-0.75-1.969l-0.156-0.156c0.099-0.1,0.194-0.204,0.281-0.313
				l0.188,0.187c0,0,0.615,2.133,1.219,1.781l0.344-0.219c0.662-0.385-0.812-2.062-0.812-2.062l-0.469-0.562
				c0.041-0.16,0.075-0.304,0.062-0.469c-0.006-0.075-0.017-0.147-0.031-0.219l0.969,1.406c0,0,0.629,1.857,1.125,1.438l0.407-0.312
				c0.448-0.379-0.625-1.656-0.625-1.656l-1.125-1.531l-3-2.094l-0.437-0.156c-0.009-0.007-0.021-0.024-0.031-0.031
				c-0.536-0.406-1.719-0.906-1.719-0.906l-2.031,0.156l-4.531,0.312v0.031l-5.062,0.219l-26.406-4.844l-0.719-0.406h-0.094
				l-19.719-8.531L448.375,31.25z M524.5,34.75c-0.02,0.042-0.069,0.095-0.094,0.125C524.443,34.837,524.475,34.813,524.5,34.75z
				 M521.406,36.094c0.076,0.057,0.121,0.102,0.188,0.125C521.533,36.197,521.476,36.145,521.406,36.094z M516.5,147.093
				c0.09,0.033,0.172,0.097,0.25,0.157C516.669,147.186,516.601,147.129,516.5,147.093z"/>
			
				<radialGradient id="path4404_1_" cx="616.6327" cy="255.0547" r="46.5312" gradientTransform="matrix(0.9134 1.2386 2.4867 -1.8339 -746.4115 -255.4199)" gradientUnits="userSpaceOnUse">
				<stop  offset="0" style="stop-color:#A56941"/>
				<stop  offset="1" style="stop-color:#A56941;stop-opacity:0"/>
			</radialGradient>
			<path id="path4404" inkscape:connector-curvature="0" fill="url(#path4404_1_)" d="M456,13.969
				c-0.016,0.263-0.121,0.555-0.375,0.844C455.882,14.525,455.986,14.237,456,13.969z M435.125,19.656
				c0.254,0.027,0.454,0.161,0.656,0.312C435.581,19.815,435.379,19.683,435.125,19.656z M438.469,29.875
				c-0.381,0.278-0.774,0.607-1.125,0.938C437.696,30.479,438.087,30.157,438.469,29.875z M448.375,31.25l-7.344,1.156l-0.312,4.406
				l5,7.937l23.531,7.375l0.125,0.375l17.875,3.625l2.625-3.156l0.781,5.531l3.406-3.688v2.094l-4.718,4.969l7.843-3.656
				l-5.219,6.531l6.531-6.531l2.563-6.375h5.218c0,0,0.111,0.042,0.187,0.062v0.062h0.125c0,0,0.346,0.275,0.813,0.594
				c0.008,0.013,0.023,0.018,0.031,0.031c0.104,0.177,0.202,0.348,0.375,0.437c0.141,0.072,0.333,0.095,0.531,0.125
				c0.758,0.45,1.614,0.891,2.281,0.969c0.518,0.061,1.06,0.037,1.594-0.031l0.719,0.625c0,0-0.013,1.031,0.344,1.313
				c0.18,0.142,0.518,0.156,0.687,0c0.403-0.373,0.125-1.656,0.125-1.656l-0.406-0.625c0.54-0.193,1.043-0.462,1.5-0.781
				l0.969,1.937c0.186,0.37,0.553-0.172,0.625-0.406c0.205-0.664-0.75-1.969-0.75-1.969l-0.156-0.156
				c0.099-0.1,0.194-0.204,0.281-0.313l0.188,0.187c0,0,0.615,2.133,1.219,1.781l0.344-0.219c0.662-0.385-0.812-2.062-0.812-2.062
				l-0.469-0.562c0.041-0.16,0.075-0.304,0.062-0.469c-0.006-0.075-0.017-0.147-0.031-0.219l0.969,1.406
				c0,0,0.629,1.857,1.125,1.438l0.407-0.312c0.448-0.379-0.625-1.656-0.625-1.656l-1.125-1.531l-3-2.094l-0.437-0.156
				c-0.009-0.007-0.021-0.024-0.031-0.031c-0.536-0.406-1.719-0.906-1.719-0.906l-2.031,0.156l-4.531,0.312v0.031l-5.062,0.219
				l-26.406-4.844l-0.719-0.406h-0.094l-19.719-8.531L448.375,31.25z M524.5,34.75c-0.02,0.042-0.069,0.095-0.094,0.125
				C524.443,34.837,524.475,34.813,524.5,34.75z M521.406,36.094c0.076,0.057,0.121,0.102,0.188,0.125
				C521.533,36.197,521.476,36.145,521.406,36.094z M516.5,147.093c0.09,0.033,0.172,0.097,0.25,0.157
				C516.669,147.186,516.601,147.129,516.5,147.093z"/>
		</g>
		
			<radialGradient id="path4432_1_" cx="1667.4575" cy="248.7652" r="13.8945" gradientTransform="matrix(2.4659 0 0 -2.7142 -2689.4485 537.5078)" gradientUnits="userSpaceOnUse">
			<stop  offset="0" style="stop-color:#AD6E44"/>
			<stop  offset="1" style="stop-color:#AD6E44;stop-opacity:0"/>
		</radialGradient>
		<path id="path4432" sodipodi:nodetypes="ccccccccccc" inkscape:connector-curvature="0" fill="url(#path4432_1_)" d="
			M1417.791-159.453c-6.01,1.8-8.351-1.083-21.597,9.821l-6.98,13.272l8.087,21.192l12.356,3.71l-2.172,13.191l29.088-0.356
			l-4.29-13.131l12.521-8.485c-5.066-20.454-6.411-16.729-13.887-28.241L1417.791-159.453z"/>
	</g>
</g>
</svg>
